<svg xmlns="http://www.w3.org/2000/svg" xmlns:xlink="http://www.w3.org/1999/xlink" version="1.1" width="256" height="256" viewBox="0 0 256 256" xml:space="preserve">
<g style="stroke: none; stroke-width: 0; stroke-dasharray: none; stroke-linecap: butt; stroke-linejoin: miter; stroke-miterlimit: 10; fill: none; fill-rule: nonzero; opacity: 1;" transform="translate(1.4065934065934016 1.4065934065934016) scale(2.81 2.81)">
	<path d="M 84.56 87.873 c -0.833 -5.148 -2.889 -10.558 -6.189 -15.861 c -6.105 -9.812 -15.088 -14.824 -25.533 -16.26 c 10.891 -3.549 19.473 -10.633 23.878 -22.326 c 2.323 -6.165 3.337 -12.183 3.14 -17.68 c -0.043 -1.199 -1.21 -2.046 -2.387 -1.812 l -12.601 2.506 c -2.494 0.379 1.42 8.383 -1.114 13.889 c -7.74 16.817 -24.355 23.088 -39.635 7.541 c -3.655 -3.719 -6.299 -12.305 -9.828 -11.375 l -7.256 1.443 c -0.969 0.193 -1.681 1.089 -1.612 2.075 c 0.993 14.163 9.431 25.833 22.968 28.124 c -11.849 4.77 -17.365 17.046 -15.691 30.232 C 12.817 89.298 13.645 90 14.582 90 h 14.463 c 0.902 0 1.634 -0.65 1.817 -1.534 c 0.416 -2.002 1.171 -4.057 2.445 -6.104 c 4.445 -7.144 12.207 -8.762 20.708 -7.055 c 6.349 1.275 9.594 6.604 9.486 12.693 c -0.019 1.082 0.77 2 1.852 2 h 17.321 C 83.812 90 84.741 88.996 84.56 87.873 z" style="stroke: none; stroke-width: 1; stroke-dasharray: none; stroke-linecap: butt; stroke-linejoin: miter; stroke-miterlimit: 10; fill: rgb(139,224,164); fill-rule: nonzero; opacity: 1;" transform=" matrix(1 0 0 1 0 0) " stroke-linecap="round"/>
	<path d="M 50.831 22.382 c 2.964 -7.222 -0.03 -13.941 -5.928 -19.412 c -6.248 -5.795 -15.34 -2.626 -19.582 5.341 c -3.669 6.89 0.559 13.421 5.929 19.412 C 38.174 35.45 46.982 31.761 50.831 22.382 z" style="stroke: none; stroke-width: 1; stroke-dasharray: none; stroke-linecap: butt; stroke-linejoin: miter; stroke-miterlimit: 10; fill: rgb(139,224,164); fill-rule: nonzero; opacity: 1;" transform=" matrix(1 0 0 1 0 0) " stroke-linecap="round"/>
</g>
</svg>