<svg xmlns="http://www.w3.org/2000/svg" xmlns:xlink="http://www.w3.org/1999/xlink" version="1.1" width="256" height="256" viewBox="0 0 256 256" xml:space="preserve">
<g style="stroke: none; stroke-width: 0; stroke-dasharray: none; stroke-linecap: butt; stroke-linejoin: miter; stroke-miterlimit: 10; fill: none; fill-rule: nonzero; opacity: 1;" transform="translate(1.4065934065934016 1.4065934065934016) scale(2.81 2.81)">
	<path d="M 86.226 51.006 c -0.375 -5.518 -2.274 -10.614 -5.278 -14.947 c -2.438 -3.516 -4.084 -7.466 -4.694 -11.657 c -0.967 -6.636 -2.769 -13.823 -5.583 -21.676 c -0.838 -2.34 -3.9 -3.064 -5.792 -1.395 c -6.417 5.663 -11.166 12.406 -13.68 20.596 c -4.108 -0.12 -8.196 -0.118 -12.264 0.008 C 34.641 12.268 27.633 5.375 18.69 0.458 c -2.229 -1.225 -5.053 0.13 -5.335 2.593 c -0.777 6.775 -0.996 12.97 -0.733 18.664 c 0.249 5.4 -1.135 10.744 -4.098 15.328 C 5.518 41.694 3.74 47.152 3.632 53.021 c -0.164 8.916 1.972 18.205 6.41 27.866 c 1.581 3.442 4.808 5.937 8.648 6.578 c 18.757 3.135 36.836 3.51 54.032 0.291 c 4.116 -0.77 7.484 -3.634 8.93 -7.438 C 85.366 70.543 86.89 60.773 86.226 51.006 z M 25.215 45.071 c -1.725 -4.018 0.65 -7.966 6.296 -7.933 c 4.378 0.026 8.471 0.581 9.386 3.806 c 1.058 3.728 -1.62 7.615 -6.296 7.933 C 30.185 49.176 26.543 48.164 25.215 45.071 z M 59.234 75.469 c -2.369 2.73 -6.018 4.597 -10.007 5.122 c -3.677 0.486 -7.174 -0.267 -9.777 -2.072 c -0.322 -0.223 -0.632 -0.463 -0.926 -0.718 c -2.993 -2.601 -4.716 -7.697 -4.193 -12.393 c 0.341 -3.074 1.622 -5.356 3.61 -6.422 c 0.779 -0.405 1.36 -0.256 1.712 -0.061 l 1.809 2.357 c 2.331 2.388 5.51 3.686 8.092 3.319 c 1.928 -0.278 3.448 -1.442 4.519 -3.454 c 2.25 -4.172 3.169 -5.782 5.844 -2.554 C 64.508 63.455 64.223 69.734 59.234 75.469 z M 61.174 48.876 c -4.415 0.3 -8.058 -0.712 -9.386 -3.806 c -1.725 -4.018 0.65 -7.966 6.297 -7.933 c 4.378 0.026 8.471 0.581 9.386 3.806 C 68.528 44.672 65.85 48.559 61.174 48.876 z" style="stroke: none; stroke-width: 1; stroke-dasharray: none; stroke-linecap: butt; stroke-linejoin: miter; stroke-miterlimit: 10; fill: rgb(248,156,116); fill-rule: nonzero; opacity: 1;" transform=" matrix(1 0 0 1 0 0) " stroke-linecap="round"/>
</g>
</svg>