<svg xmlns="http://www.w3.org/2000/svg" xmlns:xlink="http://www.w3.org/1999/xlink" version="1.1" width="256" height="256" viewBox="0 0 256 256" xml:space="preserve">
<g style="stroke: none; stroke-width: 0; stroke-dasharray: none; stroke-linecap: butt; stroke-linejoin: miter; stroke-miterlimit: 10; fill: none; fill-rule: nonzero; opacity: 1;" transform="translate(1.4065934065934016 1.4065934065934016) scale(2.81 2.81)">
	<path d="M 89.339 24.899 c -5.613 -6.158 -14.849 -8.229 -22.98 -6.407 c -1.913 0.429 -3.801 1.059 -5.464 2.095 c -1.331 0.829 -2.494 1.901 -3.804 2.763 c -4.888 3.215 -11.784 3.009 -16.471 -0.493 c -2.635 -1.968 -4.501 -4.763 -6.539 -7.344 c -3.838 -4.862 -8.506 -9.162 -14.038 -11.95 c -1.752 -0.883 -3.629 -1.621 -5.59 -1.691 c -1.961 -0.071 -4.03 0.618 -5.245 2.158 C 7.456 6.247 7.961 9.63 9.633 11.91 c 0.942 1.884 5.8 3.317 6.208 4.769 c 1.242 4.421 -6.97 -0.01 -7.307 4.489 c -0.62 2.489 0.929 5.097 3.026 6.574 c 2.098 1.477 4.659 2.094 7.119 2.822 c 3.095 0.916 6.125 2.051 9.061 3.393 c 0.995 0.455 2.016 0.962 2.686 1.826 c 0.671 0.864 0.878 2.187 0.183 3.032 c -0.638 0.775 -1.764 0.897 -2.768 0.92 c -3.659 0.082 -7.33 -0.386 -10.851 -1.385 c -3.988 -1.13 -7.972 -2.957 -12.087 -2.464 c -1.821 0.219 -3.741 1.041 -4.521 2.701 c -0.491 1.045 -0.453 2.268 -0.192 3.392 c 0.628 2.706 2.549 5.082 5.063 6.263 c 1.525 0.717 8.044 2.986 7.624 4.617 c -0.977 2.603 -14.482 -0.61 -9.091 9.193 c 1.534 2.69 5.327 1.858 7.52 0.869 c 4.175 -1.885 6.494 -3.187 3.791 5.271 c -0.504 2.474 -0.527 5.044 -0.068 7.527 c 0.102 0.553 0.251 1.141 0.676 1.509 c 0.381 0.329 0.911 0.417 1.413 0.452 c 4.701 0.335 9.043 -2.712 11.993 -6.387 c 2.95 -3.676 4.924 -8.038 7.697 -11.849 c 0.736 -1.011 1.721 -2.077 2.971 -2.026 c 1.771 0.073 2.588 2.209 2.885 3.958 c 0.467 2.758 0.738 5.549 0.809 8.345 c 0.068 2.668 0.009 5.534 1.511 7.739 c 1.502 2.205 5.3 2.974 6.703 0.704 c 0.78 -1.262 0.644 -3.116 1.868 -3.954 c 1.336 -0.915 3.248 0.258 3.833 1.768 c 0.585 1.51 0.338 3.195 0.435 4.811 c 0.168 2.802 1.667 5.728 4.307 6.681 c 2.344 0.847 5.644 1.187 7.265 -0.871 c 1.283 -1.535 1.939 -3.525 2.101 -5.874 c 0.262 -9.927 -5.417 -15.461 -7.736 -25.116 c -1.27 -5.289 -1.486 -11.404 1.968 -15.606 c 1.4 -1.704 3.282 -2.93 5.132 -4.13 c 3.174 -2.057 6.347 -4.114 9.521 -6.171 c 1.763 -1.143 3.679 -2.329 5.778 -2.241 c 0.78 0.033 1.559 0.244 2.331 0.128 c 0.772 -0.116 1.563 -0.722 1.509 -1.5 C 89.965 25.628 89.65 25.241 89.339 24.899 z M 72.612 28.531 c -1.837 -0.41 -3.946 -2.164 -4.268 -4.267 c -0.356 -2.33 1.911 -4.234 4.268 -4.268 c 2.151 -0.03 4.044 1.878 4.267 4.268 C 77.098 26.61 74.912 29.044 72.612 28.531 z" style="stroke: none; stroke-width: 1; stroke-dasharray: none; stroke-linecap: butt; stroke-linejoin: miter; stroke-miterlimit: 10; fill: rgb(246,207,113); fill-rule: nonzero; opacity: 1;" transform=" matrix(1 0 0 1 0 0) " stroke-linecap="round"/>
</g>
</svg>