<svg xmlns="http://www.w3.org/2000/svg" xmlns:xlink="http://www.w3.org/1999/xlink" version="1.1" width="256" height="256" viewBox="0 0 256 256" xml:space="preserve">
<g style="stroke: none; stroke-width: 0; stroke-dasharray: none; stroke-linecap: butt; stroke-linejoin: miter; stroke-miterlimit: 10; fill: none; fill-rule: nonzero; opacity: 1;" transform="translate(1.4065934065934016 1.4065934065934016) scale(2.81 2.81)">
	<path d="M 56.721 52.746 c 12.069 0.786 23.517 -4.98 31.19 -15.904 c 0.962 -1.389 0.785 -3.283 -0.419 -4.411 c -1.735 -1.624 -4.097 -3.154 -7.22 -4.698 c -1.497 -0.733 -3.333 -0.222 -4.273 1.2 c -3.051 4.663 -8.085 8.018 -13.818 9.199 c -4.744 0.983 -9.425 0.345 -12.518 -1.7 c -4.432 -2.93 -7.171 -7.161 -7.923 -12.235 c -0.832 -5.644 0.879 -12.007 4.171 -16.009 l 0.967 -1.169 L 46.65 5.905 c -0.584 -2.9 -7.422 -5.691 -7.482 -5.714 c -1.492 -0.532 -3.192 0.078 -4.038 1.452 c -8.183 13.344 -7.611 24.029 -5.639 30.709 c -6.205 -1.225 -12.279 0.148 -17.26 3.936 c -6.673 5.067 -10.695 13.9 -10.76 23.624 C 1.414 69.68 6.642 76.205 13.84 80.964 c 4.502 2.976 9.77 5.259 14.995 7.209 c 8.015 2.992 15.487 2.292 21.041 -1.966 c 6.533 -4.997 9.821 -14.475 8.797 -25.349 C 58.409 58.006 57.762 55.325 56.721 52.746 z M 43.33 68.334 l -0.004 -0.003 c -9.272 7.064 -15.297 8.506 -20.799 4.985 c -4.347 -2.689 -7.205 -7.043 -7.585 -11.362 c -0.287 -3.34 0.916 -6.354 3.482 -8.71 c 4.906 -4.509 12.508 -8.99 20.836 -4.766 c 0.808 0.409 1.568 0.852 2.279 1.322 c 3.878 2.564 6.299 5.967 6.614 9.426 C 48.456 62.554 46.788 65.702 43.33 68.334 z" style="stroke: none; stroke-width: 1; stroke-dasharray: none; stroke-linecap: butt; stroke-linejoin: miter; stroke-miterlimit: 10; fill: rgb(254,136,177); fill-rule: nonzero; opacity: 1;" transform=" matrix(1 0 0 1 0 0) " stroke-linecap="round"/>
</g>
</svg>