<svg xmlns="http://www.w3.org/2000/svg" xmlns:xlink="http://www.w3.org/1999/xlink" version="1.1" width="256" height="256" viewBox="0 0 256 256" xml:space="preserve">
<g style="stroke: none; stroke-width: 0; stroke-dasharray: none; stroke-linecap: butt; stroke-linejoin: miter; stroke-miterlimit: 10; fill: none; fill-rule: nonzero; opacity: 1;" transform="translate(1.4065934065934016 1.4065934065934016) scale(2.81 2.81)">
	<path d="M 82.844 37.773 c -0.048 -0.917 -0.857 -1.62 -1.775 -1.614 c -5.791 0.042 -10.383 0.993 -12.473 3.845 c -0.293 0.4 -0.337 0.941 -0.217 1.421 c 2.935 11.73 -2.638 23.268 -10.241 28.926 c -4.21 -8.921 -8.014 -20.994 -11.122 -33.853 c 3.511 -2.477 6.903 -5.373 10.178 -8.674 c 0.838 -0.844 0.247 -2.304 -0.942 -2.325 c -3.606 -0.064 -7.631 -0.172 -11.679 0.085 c -0.523 -2.547 -1.014 -5.095 -1.476 -7.631 c 1.585 -1.571 2.854 -3.616 3.794 -6.005 c 2.276 -5.787 -2.297 -11.122 -8.839 -11.885 c -5.658 -0.66 -8.97 3.951 -11.613 9.193 c -3.333 6.611 1.237 11.528 8.356 11.857 c 0.401 2.221 0.768 4.866 1.111 7.779 c -3.986 1.467 -7.792 3.32 -11.202 4.936 c -1.075 0.509 -1.012 2.082 0.099 2.506 c 4.129 1.577 8.203 2.781 12.219 3.595 c 1.164 12.96 2.123 27.244 3.42 33.697 c -10.976 -2.644 -18.02 -13.129 -19.257 -21.949 c -0.059 -0.423 -0.248 -0.827 -0.578 -1.097 c -2.762 -2.252 -7.023 -1.865 -12.467 0.603 c -0.83 0.376 -1.256 1.386 -0.928 2.236 c 8.707 22.593 31.708 39.427 46.466 36.177 C 72.93 85.357 83.793 55.885 82.844 37.773 z" style="stroke: none; stroke-width: 1; stroke-dasharray: none; stroke-linecap: butt; stroke-linejoin: miter; stroke-miterlimit: 10; fill: rgb(158,186,243); fill-rule: nonzero; opacity: 1;" transform=" matrix(1 0 0 1 0 0) " stroke-linecap="round"/>
</g>
</svg>