<svg xmlns="http://www.w3.org/2000/svg" xmlns:xlink="http://www.w3.org/1999/xlink" version="1.1" width="256" height="256" viewBox="0 0 256 256" xml:space="preserve">
<g style="stroke: none; stroke-width: 0; stroke-dasharray: none; stroke-linecap: butt; stroke-linejoin: miter; stroke-miterlimit: 10; fill: none; fill-rule: nonzero; opacity: 1;" transform="translate(1.4065934065934016 1.4065934065934016) scale(2.81 2.81)">
	<path d="M 39.167 33.226 c 6.514 -2.344 13.088 -3.604 17.396 1.549 c 4.981 5.959 4.568 14.234 -2.073 17.342 c -6.27 2.934 -12.596 3.149 -17.396 -1.549 C 30.86 44.465 30.766 36.249 39.167 33.226 z" style="stroke: none; stroke-width: 1; stroke-dasharray: none; stroke-linecap: butt; stroke-linejoin: miter; stroke-miterlimit: 10; fill: rgb(248,156,116); fill-rule: nonzero; opacity: 1;" transform=" matrix(1 0 0 1 0 0) " stroke-linecap="round"/>
	<path d="M 78.591 23 C 64.566 5.573 43.56 3.796 21.671 11.033 C -1.514 18.699 -6.132 45.903 7.994 67.567 c 12.219 18.738 34.457 17.156 56.92 11.966 C 93.887 72.84 96.809 45.633 78.591 23 z M 70.403 45.13 c -4.852 13.889 -11.574 26.428 -25.847 26.638 C 28.054 72.011 14.948 60.252 18.709 45.13 c 3.551 -14.277 11.666 -25.006 25.847 -26.638 C 62.974 16.372 76.66 27.216 70.403 45.13 z" style="stroke: none; stroke-width: 1; stroke-dasharray: none; stroke-linecap: butt; stroke-linejoin: miter; stroke-miterlimit: 10; fill: rgb(248,156,116); fill-rule: nonzero; opacity: 1;" transform=" matrix(1 0 0 1 0 0) " stroke-linecap="round"/>
	<path d="M 39.167 33.226 c 6.514 -2.344 13.088 -3.604 17.396 1.549 c 4.981 5.959 4.568 14.234 -2.073 17.342 c -6.27 2.934 -12.596 3.149 -17.396 -1.549 C 30.86 44.465 30.766 36.249 39.167 33.226 z" style="stroke: none; stroke-width: 1; stroke-dasharray: none; stroke-linecap: butt; stroke-linejoin: miter; stroke-miterlimit: 10; fill: rgb(248,156,116); fill-rule: nonzero; opacity: 1;" transform=" matrix(1 0 0 1 0 0) " stroke-linecap="round"/>
</g>
</svg>