<svg xmlns="http://www.w3.org/2000/svg" xmlns:xlink="http://www.w3.org/1999/xlink" version="1.1" width="256" height="256" viewBox="0 0 256 256" xml:space="preserve">
<g style="stroke: none; stroke-width: 0; stroke-dasharray: none; stroke-linecap: butt; stroke-linejoin: miter; stroke-miterlimit: 10; fill: none; fill-rule: nonzero; opacity: 1;" transform="translate(1.4065934065934016 1.4065934065934016) scale(2.81 2.81)">
	<path d="M 46.468 83.672 C 17.561 69.597 3.362 47.459 0.038 24.206 c -0.397 -2.776 2.417 -4.941 5.021 -3.903 c 10.41 4.147 20.006 8.912 25.138 17.06 c 0.647 1.027 2.228 0.584 2.252 -0.63 c 0.193 -9.949 4.9 -19.57 11.93 -29.022 c 1.367 -1.838 4.099 -2.052 5.657 -0.374 c 6.517 7.018 10.991 16.272 11.575 29.788 c 0.053 1.23 1.636 1.639 2.285 0.593 c 5.722 -9.224 13.002 -14.449 21.047 -17.711 c 2.868 -1.163 5.802 1.596 4.886 4.552 c -8.148 26.3 -18.799 49.832 -42.302 59.154 C 47.189 83.848 46.795 83.831 46.468 83.672 z" style="stroke: none; stroke-width: 1; stroke-dasharray: none; stroke-linecap: butt; stroke-linejoin: miter; stroke-miterlimit: 10; fill: rgb(201,219,116); fill-rule: nonzero; opacity: 1;" transform=" matrix(1 0 0 1 0 0) " stroke-linecap="round"/>
</g>
</svg>