<svg xmlns="http://www.w3.org/2000/svg" xmlns:xlink="http://www.w3.org/1999/xlink" version="1.1" width="256" height="256" viewBox="0 0 256 256" xml:space="preserve">
<g style="stroke: none; stroke-width: 0; stroke-dasharray: none; stroke-linecap: butt; stroke-linejoin: miter; stroke-miterlimit: 10; fill: none; fill-rule: nonzero; opacity: 1;" transform="translate(1.4065934065934016 1.4065934065934016) scale(2.81 2.81)">
	<path d="M 8.418 42.533 C 9.123 31.278 21.842 19.086 33.07 26.792 c 3.834 2.505 5.146 6.756 8.589 8.998 c 1.416 0.912 2.795 0.766 3.668 0.067 c 2.028 -1.734 4.588 -5.055 6.493 -7.296 c 2.696 -3.536 4.787 -7.713 10.095 -9.551 c 5.882 -1.918 11.767 0.589 15.355 4.895 c 3.086 3.91 4.066 8.127 4.312 12.317 l -0.919 0.485 c -3.354 -2.617 -6.091 -5.399 -8.833 -6.684 c -3.497 -1.546 -5.777 -1.548 -8.626 1.287 c -5.309 5.655 -16.365 14.785 -23.749 7.197 c -1.602 -1.579 -2.725 -3.197 -4.124 -4.453 c -2.814 -2.817 -6.072 -1.997 -8.605 -1.02 c -6.539 1.779 -11.053 6.316 -17.449 10.084 C 9.277 43.119 8.418 42.533 8.418 42.533 L 8.418 42.533 z" style="stroke: none; stroke-width: 1; stroke-dasharray: none; stroke-linecap: butt; stroke-linejoin: miter; stroke-miterlimit: 10; fill: rgb(158,186,243); fill-rule: nonzero; opacity: 1;" transform=" matrix(1 0 0 1 0 0) " stroke-linecap="round"/>
	<path d="M 0 71.057 c 1.925 -13.066 16.462 -27.454 30.045 -18.856 c 4.687 2.862 6.459 7.978 10.584 10.791 c 4.16 2.652 6.349 -0.62 9.227 -3.551 c 1.515 -1.619 3.01 -3.199 4.377 -4.879 c 3.364 -4.146 5.881 -9.208 12.069 -11.359 C 79.116 38.973 89.405 52.07 90 63.265 c 0.001 0 -0.919 0.485 -0.919 0.485 c -5.271 -4.692 -8.845 -9.623 -15.236 -10.579 c -3.644 -0.222 -4.423 0.57 -7.332 3.129 c -3.116 3.198 -7.347 7.451 -11.571 9.756 c -10.317 6.018 -14.807 2.201 -21.57 -5.783 c -3.375 -3.535 -7.564 -3.099 -11.001 -2 c -3.552 1.043 -6.796 2.282 -10.275 4.831 c -3.489 2.4 -6.929 5.684 -11.238 8.538 C 0.859 71.642 0 71.057 0 71.057 L 0 71.057 z" style="stroke: none; stroke-width: 1; stroke-dasharray: none; stroke-linecap: butt; stroke-linejoin: miter; stroke-miterlimit: 10; fill: rgb(158,186,243); fill-rule: nonzero; opacity: 1;" transform=" matrix(1 0 0 1 0 0) " stroke-linecap="round"/>
</g>
</svg>