<svg xmlns="http://www.w3.org/2000/svg" xmlns:xlink="http://www.w3.org/1999/xlink" version="1.1" width="256" height="256" viewBox="0 0 256 256" xml:space="preserve">
<g style="stroke: none; stroke-width: 0; stroke-dasharray: none; stroke-linecap: butt; stroke-linejoin: miter; stroke-miterlimit: 10; fill: none; fill-rule: nonzero; opacity: 1;" transform="translate(1.4065934065934016 1.4065934065934016) scale(2.81 2.81)">
	<path d="M 73.073 39.882 c -5.187 -6.444 -11.518 -10.318 -18.547 -12.122 c 3.465 -5.138 6.162 -10.865 8.088 -17.185 c 1.471 -4.827 -1.987 -9.826 -7.016 -10.239 c -8.28 -0.68 -15.993 -0.399 -22.761 1.487 c -4.528 1.262 -6.937 6.238 -5.256 10.627 c 2.298 5.996 4.699 10.993 7.199 15.039 c -3.055 0.566 -6.153 1.36 -9.277 2.392 C 6.127 36.288 2.267 59.023 14.073 77.128 c 10.212 15.659 28.797 14.337 47.57 10 C 85.856 81.535 88.298 58.797 73.073 39.882 z M 66.23 58.377 c -4.055 11.607 -9.673 22.086 -21.601 22.262 c -13.791 0.203 -24.744 -9.624 -21.601 -22.262 c 2.968 -11.931 9.749 -20.898 21.601 -22.262 C 60.022 34.343 71.459 43.406 66.23 58.377 z" style="stroke: none; stroke-width: 1; stroke-dasharray: none; stroke-linecap: butt; stroke-linejoin: miter; stroke-miterlimit: 10; fill: rgb(158,186,243); fill-rule: nonzero; opacity: 1;" transform=" matrix(1 0 0 1 0 0) " stroke-linecap="round"/>
</g>
</svg>