<svg xmlns="http://www.w3.org/2000/svg" xmlns:xlink="http://www.w3.org/1999/xlink" version="1.1" width="256" height="256" viewBox="0 0 256 256" xml:space="preserve">
<g style="stroke: none; stroke-width: 0; stroke-dasharray: none; stroke-linecap: butt; stroke-linejoin: miter; stroke-miterlimit: 10; fill: none; fill-rule: nonzero; opacity: 1;" transform="translate(1.4065934065934016 1.4065934065934016) scale(2.81 2.81)">
	<path d="M 66.262 11.116 c 1.258 12.381 1.341 26.824 -0.021 43.806 c -0.099 1.238 -0.834 2.307 -1.807 2.512 c -2.76 0.582 -5.222 0.508 -7.507 0.047 c -1.061 -0.214 -1.866 -1.339 -1.916 -2.693 c -0.549 -14.85 -0.607 -29.289 -0.018 -43.187 c 0.058 -1.369 0.899 -2.477 1.977 -2.658 c 2.981 -0.5 5.595 -0.668 7.537 -0.225 C 65.443 8.931 66.141 9.924 66.262 11.116 z" style="stroke: none; stroke-width: 1; stroke-dasharray: none; stroke-linecap: butt; stroke-linejoin: miter; stroke-miterlimit: 10; fill: rgb(246,207,113); fill-rule: nonzero; opacity: 1;" transform=" matrix(1 0 0 1 0 0) " stroke-linecap="round"/>
	<path d="M 38.299 55.905 c -1.161 -9.061 -1.238 -19.632 0.019 -32.061 c 0.092 -0.906 0.77 -1.688 1.668 -1.838 c 2.547 -0.426 4.82 -0.372 6.928 -0.034 c 0.979 0.157 1.722 0.98 1.768 1.971 c 0.507 10.869 0.56 21.437 0.017 31.608 c -0.054 1.002 -0.83 1.813 -1.824 1.945 c -2.751 0.366 -5.163 0.489 -6.956 0.165 C 39.055 57.504 38.41 56.777 38.299 55.905 z" style="stroke: none; stroke-width: 1; stroke-dasharray: none; stroke-linecap: butt; stroke-linejoin: miter; stroke-miterlimit: 10; fill: rgb(246,207,113); fill-rule: nonzero; opacity: 1;" transform=" matrix(1 0 0 1 0 0) " stroke-linecap="round"/>
	<path d="M 30.313 56.443 c 0.812 -6.339 0.866 -13.734 -0.014 -22.429 c -0.064 -0.634 -0.539 -1.181 -1.167 -1.286 c -1.782 -0.298 -3.372 -0.26 -4.848 -0.024 c -0.685 0.11 -1.205 0.686 -1.237 1.379 c -0.354 7.603 -0.392 14.996 -0.012 22.111 c 0.037 0.701 0.58 1.268 1.276 1.361 c 1.925 0.256 3.613 0.342 4.867 0.115 C 29.784 57.561 30.235 57.053 30.313 56.443 z" style="stroke: none; stroke-width: 1; stroke-dasharray: none; stroke-linecap: butt; stroke-linejoin: miter; stroke-miterlimit: 10; fill: rgb(246,207,113); fill-rule: nonzero; opacity: 1;" transform=" matrix(1 0 0 1 0 0) " stroke-linecap="round"/>
	<path d="M 79.664 24.64 c -0.593 0.183 -0.961 0.805 -0.855 1.417 c 4.386 25.227 -7.936 42.258 -31.438 46.747 C 33.59 75.437 12.936 71.185 8.192 39.761 c -0.076 -0.503 -0.44 -0.973 -0.94 -1.066 c -2.21 -0.41 -7.543 0.77 -7.24 1.75 c 8.875 46.459 46.573 42.003 57.495 39.917 C 84.661 75.175 93.782 52.77 88.624 24.13 c -0.106 -0.591 -0.597 -1.087 -1.198 -1.081 C 85.418 23.07 82.722 23.696 79.664 24.64 z" style="stroke: none; stroke-width: 1; stroke-dasharray: none; stroke-linecap: butt; stroke-linejoin: miter; stroke-miterlimit: 10; fill: rgb(246,207,113); fill-rule: nonzero; opacity: 1;" transform=" matrix(1 0 0 1 0 0) " stroke-linecap="round"/>
</g>
</svg>