<svg xmlns="http://www.w3.org/2000/svg" xmlns:xlink="http://www.w3.org/1999/xlink" version="1.1" width="256" height="256" viewBox="0 0 256 256" xml:space="preserve">
<g style="stroke: none; stroke-width: 0; stroke-dasharray: none; stroke-linecap: butt; stroke-linejoin: miter; stroke-miterlimit: 10; fill: none; fill-rule: nonzero; opacity: 1;" transform="translate(1.4065934065934016 1.4065934065934016) scale(2.81 2.81)">
	<path d="M 76.925 35.336 C 76.716 6.863 53.846 -4.584 19.54 1.654 c -6.496 0 -4.367 13.099 0 13.099 c 23.39 0 39.296 -6.237 39.296 27.445 c 0 36.177 -19.782 29.468 -40.855 28.692 c -8.835 0 -6.34 18.712 0 18.712 c 30.825 0 53.363 5.702 58.932 -26.027 c 0.842 -4.795 0.972 -9.719 0.72 -14.58 L 76.925 35.336 z" style="stroke: none; stroke-width: 1; stroke-dasharray: none; stroke-linecap: butt; stroke-linejoin: miter; stroke-miterlimit: 10; fill: rgb(102,197,204); fill-rule: nonzero; opacity: 1;" transform=" matrix(1 0 0 1 0 0) " stroke-linecap="round"/>
	<path d="M 30.3 27.539 c 8.318 -0.776 16.945 6.973 15.126 15.126 c -1.453 6.51 -7.67 13.986 -15.126 15.126 c -8.258 1.262 -15.008 -6.773 -15.126 -15.126 C 15.066 35.041 21.829 28.329 30.3 27.539 z" style="stroke: none; stroke-width: 1; stroke-dasharray: none; stroke-linecap: butt; stroke-linejoin: miter; stroke-miterlimit: 10; fill: rgb(102,197,204); fill-rule: nonzero; opacity: 1;" transform=" matrix(1 0 0 1 0 0) " stroke-linecap="round"/>
</g>
</svg>