<svg xmlns="http://www.w3.org/2000/svg" xmlns:xlink="http://www.w3.org/1999/xlink" version="1.1" width="256" height="256" viewBox="0 0 256 256" xml:space="preserve">
<g style="stroke: none; stroke-width: 0; stroke-dasharray: none; stroke-linecap: butt; stroke-linejoin: miter; stroke-miterlimit: 10; fill: none; fill-rule: nonzero; opacity: 1;" transform="translate(1.4065934065934016 1.4065934065934016) scale(2.81 2.81)">
	<path d="M 80.737 50.801 c 0.608 -0.698 0.633 -1.778 0.065 -2.632 C 71.455 34.038 54.92 18.933 28.768 0.63 C 28.16 0.206 27.452 0 26.759 0 c -1.05 0 -2.074 0.465 -2.692 1.331 c -4.636 6.502 -8.905 14.857 -13.044 25.54 c -0.623 1.6 -0.1 3.35 1.261 4.257 c 6.791 4.503 19.166 8.606 29.192 11.68 l 17.373 5.326 l -17.584 4.568 c -13.712 3.564 -23.868 7.818 -31.06 13.006 c -1.497 1.085 -1.868 3.275 -0.814 4.782 c 6.524 9.292 13.677 15.753 21.266 19.204 c 1.045 0.477 2.31 0.392 3.305 -0.226 v -0.003 C 53.328 77.391 68.627 64.742 80.737 50.801 z" style="stroke: none; stroke-width: 1; stroke-dasharray: none; stroke-linecap: butt; stroke-linejoin: miter; stroke-miterlimit: 10; fill: rgb(158,186,243); fill-rule: nonzero; opacity: 1;" transform=" matrix(1 0 0 1 0 0) " stroke-linecap="round"/>
</g>
</svg>