<svg xmlns="http://www.w3.org/2000/svg" xmlns:xlink="http://www.w3.org/1999/xlink" version="1.1" width="256" height="256" viewBox="0 0 256 256" xml:space="preserve">
<g style="stroke: none; stroke-width: 0; stroke-dasharray: none; stroke-linecap: butt; stroke-linejoin: miter; stroke-miterlimit: 10; fill: none; fill-rule: nonzero; opacity: 1;" transform="translate(1.4065934065934016 1.4065934065934016) scale(2.81 2.81)">
	<path d="M 50.547 49.471 c -1.824 0.22 -2.129 2.719 -0.405 3.352 c 4.259 1.562 5.843 6.622 1.782 10.732 c -3.218 3.257 -8.58 3.66 -13.792 -1.488 c -6.142 -6.067 -5.811 -12.36 0.781 -19.033 c 7.014 -7.101 16.625 -8.64 25.466 0.093 c 5.584 5.516 12.25 21.478 3.149 30.692 C 55.76 85.732 38.46 85.376 23.15 70.253 C 10.447 57.705 7.913 36.814 21.979 22.575 C 41.501 2.812 80.876 17.018 85.95 52.012 c 0.287 1.98 3.149 1.937 3.43 -0.043 c 6.44 -45.272 -51.351 -65.654 -74.63 -42.087 C -8.968 33.893 0.362 61.864 13.275 74.62 c 23.802 23.511 44.711 16.584 58.777 2.345 c 10.48 -10.61 3.837 -30.411 -6.354 -40.477 c -15.217 -15.031 -26.291 -10.8 -35.208 -1.773 c -8.044 8.143 -4.765 22.415 3.89 30.965 c 10.889 10.756 28.186 3.018 28.123 -7.249 C 62.273 52.773 56.521 48.751 50.547 49.471 z" style="stroke: none; stroke-width: 1; stroke-dasharray: none; stroke-linecap: butt; stroke-linejoin: miter; stroke-miterlimit: 10; fill: rgb(180,151,231); fill-rule: nonzero; opacity: 1;" transform=" matrix(1 0 0 1 0 0) " stroke-linecap="round"/>
</g>
</svg>