<svg xmlns="http://www.w3.org/2000/svg" xmlns:xlink="http://www.w3.org/1999/xlink" version="1.1" width="256" height="256" viewBox="0 0 256 256" xml:space="preserve">
<g style="stroke: none; stroke-width: 0; stroke-dasharray: none; stroke-linecap: butt; stroke-linejoin: miter; stroke-miterlimit: 10; fill: none; fill-rule: nonzero; opacity: 1;" transform="translate(1.4065934065934016 1.4065934065934016) scale(2.81 2.81)">
	<path d="M 47.707 0 c -10.508 5.617 -28.753 22.333 -22.13 26.682 c 3.447 1.844 6.906 3.809 12.898 2.088 C 23.648 40.427 4.577 57.512 10.469 63.871 c 7.862 7.862 22.086 6.327 31.441 2.634 l -0.121 18.888 c -0.01 1.639 1.013 3.133 2.547 3.71 c 2.644 0.996 5.014 1.233 6.982 0.349 c 1.309 -0.588 2.052 -2.015 2.062 -3.45 l 0.124 -19.498 c 15.305 4.251 21.462 3.25 26.115 -1.181 c 5.092 -5.092 -10.096 -22.368 -22.679 -36.555 c 8.491 4.006 13.404 1.441 14.544 -1.216 C 73.701 21.613 58.844 3.438 47.707 0" style="stroke: none; stroke-width: 1; stroke-dasharray: none; stroke-linecap: butt; stroke-linejoin: miter; stroke-miterlimit: 10; fill: rgb(201,219,116); fill-rule: nonzero; opacity: 1;" transform=" matrix(1 0 0 1 0 0) " stroke-linecap="round"/>
</g>
</svg>