<svg xmlns="http://www.w3.org/2000/svg" xmlns:xlink="http://www.w3.org/1999/xlink" version="1.1" width="256" height="256" viewBox="0 0 256 256" xml:space="preserve">
<g style="stroke: none; stroke-width: 0; stroke-dasharray: none; stroke-linecap: butt; stroke-linejoin: miter; stroke-miterlimit: 10; fill: none; fill-rule: nonzero; opacity: 1;" transform="translate(1.4065934065934016 1.4065934065934016) scale(2.81 2.81)">
	<path d="M 71.781 50.797 c -2.596 -8.004 -17.739 -1.947 -21.417 4.11 l -1.665 -17.622 c 4.751 1.563 8.71 1.631 11.089 -1.033 c 3.822 -4.278 2.897 -11.575 -2.061 -18.167 c 3.807 -7.909 2.294 -14.778 -3.647 -17.379 c -4.182 -1.831 -9.333 0.012 -14.813 4.163 c -6.152 -2.561 -11.449 -3.011 -15.006 -0.259 c -5.086 3.935 -4.97 10.859 0.42 17.525 c -3.216 7.599 -2.379 14.88 2.337 18.088 c 2.848 1.938 6.528 1.029 10.61 -1.463 l 0.838 19.825 c -8.983 -11.54 -16.228 -16.785 -19.903 -9.086 c -6.598 15.143 21.201 14.17 21.201 22.715 V 86.96 c 0 0.992 0.518 1.943 1.396 2.405 c 1.944 1.023 4.794 0.77 8.348 -0.474 c 1.059 -0.371 1.75 -1.411 1.75 -2.532 V 69.618 C 51.259 61.722 76.865 66.373 71.781 50.797 z M 32.121 21.306 c -0.772 -5.048 4.14 -9.174 9.246 -9.246 c 4.661 -0.066 8.763 4.068 9.246 9.246 c 0.474 5.084 -4.262 10.358 -9.246 9.246 C 37.387 29.664 32.818 25.863 32.121 21.306 z" style="stroke: none; stroke-width: 1; stroke-dasharray: none; stroke-linecap: butt; stroke-linejoin: miter; stroke-miterlimit: 10; fill: rgb(139,224,164); fill-rule: nonzero; opacity: 1;" transform=" matrix(1 0 0 1 0 0) " stroke-linecap="round"/>
</g>
</svg>