<svg xmlns="http://www.w3.org/2000/svg" xmlns:xlink="http://www.w3.org/1999/xlink" version="1.1" width="256" height="256" viewBox="0 0 256 256" xml:space="preserve">
<g style="stroke: none; stroke-width: 0; stroke-dasharray: none; stroke-linecap: butt; stroke-linejoin: miter; stroke-miterlimit: 10; fill: none; fill-rule: nonzero; opacity: 1;" transform="translate(1.4065934065934016 1.4065934065934016) scale(2.81 2.81)">
	<path d="M 47.552 72.017 c 24.25 0 40.917 -21.199 42.441 -42.069 c 0.07 -0.959 -0.418 -1.895 -1.224 -2.42 c -5.348 -3.481 -14.016 -9.4 -14.389 -5.806 c -0.38 1.574 -0.75 3.186 -1.125 4.804 c -3.017 13.03 -5.864 25.338 -13.412 25.338 c -1.226 0 -2.323 -0.479 -3.179 -1.386 c -2.8 -2.962 -2.541 -9.943 -1.842 -22.025 c 0.134 -2.315 0.271 -4.679 0.37 -7.008 c 0.053 -1.259 -0.804 -2.402 -2.035 -2.671 c -4.312 -0.941 -8.312 -1.127 -11.81 -0.098 c -1.042 0.306 -1.729 1.32 -1.766 2.406 c -0.074 2.213 -0.103 4.455 -0.132 6.655 c -0.171 12.25 -0.329 23.82 -8.492 23.82 c -1.893 0 -3.721 -0.879 -5.433 -2.617 c -4.054 -4.111 -7.399 -13.348 -8.346 -22.27 c -0.147 -1.386 -1.293 -2.414 -2.686 -2.382 C 8.41 24.427 3.231 25.2 0.65 27.796 c -0.507 0.51 -0.699 1.273 -0.64 1.989 C 1.857 51.883 24.092 72.017 47.552 72.017 z" style="stroke: none; stroke-width: 1; stroke-dasharray: none; stroke-linecap: butt; stroke-linejoin: miter; stroke-miterlimit: 10; fill: rgb(248,156,116); fill-rule: nonzero; opacity: 1;" transform=" matrix(1 0 0 1 0 0) " stroke-linecap="round"/>
</g>
</svg>