<svg xmlns="http://www.w3.org/2000/svg" xmlns:xlink="http://www.w3.org/1999/xlink" version="1.1" width="256" height="256" viewBox="0 0 256 256" xml:space="preserve">
<g style="stroke: none; stroke-width: 0; stroke-dasharray: none; stroke-linecap: butt; stroke-linejoin: miter; stroke-miterlimit: 10; fill: none; fill-rule: nonzero; opacity: 1;" transform="translate(1.4065934065934016 1.4065934065934016) scale(2.81 2.81)">
	<path d="M 0.001 79.071 c 0.361 -29.55 9.927 -50.823 23.603 -68.401 c 1.294 -1.663 3.896 -1.146 4.638 0.826 c 2.897 7.704 3.512 15.393 1.704 23.067 C 41.07 17.017 53.246 6.984 66.074 1.619 c 2.115 -0.884 4.287 1.059 3.625 3.254 c -4.177 13.834 -9.781 25.703 -18.789 32.888 c 8.955 -6.42 17.649 -10.498 25.778 -9.497 c 1.605 0.198 2.583 2.009 2 3.518 c -3.534 9.146 -10.064 16.54 -19.961 21.969 c 8.567 -3.25 16.28 -4.377 22.185 -1.002 c 1.182 0.675 1.552 2.308 0.849 3.473 c -3.078 5.101 -8.037 8.618 -15.572 9.966 c 10.331 1.437 18.698 4.382 23.25 10.254 c 1.154 1.489 0.44 3.712 -1.37 4.233 c -20.888 6.003 -44.633 10.192 -80.639 6.589 C 3.242 86.845 -0.051 83.281 0.001 79.071 z" style="stroke: none; stroke-width: 1; stroke-dasharray: none; stroke-linecap: butt; stroke-linejoin: miter; stroke-miterlimit: 10; fill: rgb(139,224,164); fill-rule: nonzero; opacity: 1;" transform=" matrix(1 0 0 1 0 0) " stroke-linecap="round"/>
</g>
</svg>