<svg xmlns="http://www.w3.org/2000/svg" xmlns:xlink="http://www.w3.org/1999/xlink" version="1.1" width="256" height="256" viewBox="0 0 256 256" xml:space="preserve">
<g style="stroke: none; stroke-width: 0; stroke-dasharray: none; stroke-linecap: butt; stroke-linejoin: miter; stroke-miterlimit: 10; fill: none; fill-rule: nonzero; opacity: 1;" transform="translate(1.4065934065934016 1.4065934065934016) scale(2.81 2.81)">
	<path d="M 30.334 51.873 C 18.114 42.082 4.669 32.027 0.976 24.07 c -0.918 -1.977 0.746 -4.242 2.9 -3.912 c 7.937 1.218 20.079 7.977 33.038 15.813 c -1.442 -12.409 -3.813 -26.875 -1.765 -33.896 c 0.551 -1.888 2.836 -2.728 4.367 -1.494 c 7.264 5.857 11.42 18.772 14.945 33.013 c 8.204 -6.3 19.078 -8.903 32.09 -8.545 c 2.348 0.065 3.591 2.864 2.051 4.638 c -8.53 9.823 -18.707 17.157 -26.464 20.176 c 8.327 11.929 16.781 25.244 18.636 37.019 c 0.348 2.206 -2.058 3.814 -4.056 2.815 C 64.193 83.431 54.52 73.839 46.053 62.84 c -8.838 10.654 -17.674 21.261 -26.307 24.59 c -1.947 0.751 -4.044 -0.829 -3.795 -2.901 C 17.117 74.807 22.467 63.744 30.334 51.873 z" style="stroke: none; stroke-width: 1; stroke-dasharray: none; stroke-linecap: butt; stroke-linejoin: miter; stroke-miterlimit: 10; fill: rgb(220,177,242); fill-rule: nonzero; opacity: 1;" transform=" matrix(1 0 0 1 0 0) " stroke-linecap="round"/>
</g>
</svg>