<svg xmlns="http://www.w3.org/2000/svg" xmlns:xlink="http://www.w3.org/1999/xlink" version="1.1" width="256" height="256" viewBox="0 0 256 256" xml:space="preserve">
<g style="stroke: none; stroke-width: 0; stroke-dasharray: none; stroke-linecap: butt; stroke-linejoin: miter; stroke-miterlimit: 10; fill: none; fill-rule: nonzero; opacity: 1;" transform="translate(1.4065934065934016 1.4065934065934016) scale(2.81 2.81)">
	<path d="M 34.822 63.258 c 3.343 -5.372 9.18 -6.589 15.573 -5.306 c 4.774 0.959 7.215 4.966 7.134 9.546 c -0.014 0.814 0.579 1.504 1.393 1.504 h 13.027 c 0.855 0 1.554 -0.755 1.417 -1.6 c -0.627 -3.872 -2.173 -7.94 -4.655 -11.929 c -7.275 -11.691 -19.977 -14.34 -33.891 -11.546 c -11.453 2.3 -16.919 12.645 -15.497 23.847 c 0.089 0.699 0.711 1.227 1.416 1.227 h 10.877 c 0.679 0 1.229 -0.489 1.367 -1.153 C 33.296 66.343 33.864 64.797 34.822 63.258 z" style="stroke: none; stroke-width: 1; stroke-dasharray: none; stroke-linecap: butt; stroke-linejoin: miter; stroke-miterlimit: 10; fill: rgb(248,156,116); fill-rule: nonzero; opacity: 1;" transform=" matrix(1 0 0 1 0 0) " stroke-linecap="round"/>
	<path d="M 88.293 41.247 c -6.524 0.779 -12.945 2.547 -19.273 5.192 c 1.759 1.754 3.422 3.678 4.858 5.986 c 1.304 2.095 2.328 4.205 3.213 6.309 c 4.992 -4.297 9.26 -9.319 12.706 -15.161 C 90.422 42.514 89.514 41.101 88.293 41.247 z" style="stroke: none; stroke-width: 1; stroke-dasharray: none; stroke-linecap: butt; stroke-linejoin: miter; stroke-miterlimit: 10; fill: rgb(248,156,116); fill-rule: nonzero; opacity: 1;" transform=" matrix(1 0 0 1 0 0) " stroke-linecap="round"/>
	<path d="M 63.123 41.86 c 1.193 -6.079 1.644 -12.46 1.142 -19.232 c -0.11 -1.478 -2.004 -2.134 -2.976 -1.015 c -3.953 4.551 -7.96 9.861 -12.003 15.697 C 54.318 37.886 58.969 39.382 63.123 41.86 z" style="stroke: none; stroke-width: 1; stroke-dasharray: none; stroke-linecap: butt; stroke-linejoin: miter; stroke-miterlimit: 10; fill: rgb(248,156,116); fill-rule: nonzero; opacity: 1;" transform=" matrix(1 0 0 1 0 0) " stroke-linecap="round"/>
	<path d="M 32.161 38.213 c 2.981 -0.599 5.89 -0.91 8.753 -1.08 c -2.976 -5.719 -7.096 -10.968 -10.576 -15.532 c -0.819 -1.074 -2.552 -0.634 -2.762 0.701 c -0.967 6.157 -1.352 12.099 -1.028 17.778 C 28.275 39.282 30.121 38.622 32.161 38.213 z" style="stroke: none; stroke-width: 1; stroke-dasharray: none; stroke-linecap: butt; stroke-linejoin: miter; stroke-miterlimit: 10; fill: rgb(248,156,116); fill-rule: nonzero; opacity: 1;" transform=" matrix(1 0 0 1 0 0) " stroke-linecap="round"/>
	<path d="M 18.668 46.121 c -6.095 -2.078 -11.757 -4.151 -17.02 -4.892 c -1.222 -0.172 -2.092 1.263 -1.406 2.289 c 3.401 5.081 7.741 10.162 12.913 15.242 C 13.863 53.972 15.748 49.633 18.668 46.121 z" style="stroke: none; stroke-width: 1; stroke-dasharray: none; stroke-linecap: butt; stroke-linejoin: miter; stroke-miterlimit: 10; fill: rgb(248,156,116); fill-rule: nonzero; opacity: 1;" transform=" matrix(1 0 0 1 0 0) " stroke-linecap="round"/>
</g>
</svg>