<svg xmlns="http://www.w3.org/2000/svg" xmlns:xlink="http://www.w3.org/1999/xlink" version="1.1" width="256" height="256" viewBox="0 0 256 256" xml:space="preserve">
<g style="stroke: none; stroke-width: 0; stroke-dasharray: none; stroke-linecap: butt; stroke-linejoin: miter; stroke-miterlimit: 10; fill: none; fill-rule: nonzero; opacity: 1;" transform="translate(1.4065934065934016 1.4065934065934016) scale(2.81 2.81)">
	<path d="M 89.131 59.15 C 80.694 38.404 69.028 20.638 54.133 5.853 C 45.196 -3.018 30.29 -1.606 23.104 8.735 C 14.407 21.25 6.766 39.15 0.182 62.432 C -3.062 73.906 4.166 85.929 15.895 88.08 c 17.532 3.216 37.087 2.16 57.852 -1.454 C 86.36 84.431 93.954 71.009 89.131 59.15 z M 62.37 78.715 c -11.137 2.043 -23.559 1.372 -36.749 -0.924 c -8.012 -1.394 -12.836 -9.92 -9.772 -17.453 c 5.359 -13.179 12.77 -24.464 22.232 -33.855 c 5.677 -5.635 15.145 -4.738 19.71 1.83 c 5.525 7.95 10.379 19.32 14.561 34.11 C 74.412 69.711 69.82 77.348 62.37 78.715 z" style="stroke: none; stroke-width: 1; stroke-dasharray: none; stroke-linecap: butt; stroke-linejoin: miter; stroke-miterlimit: 10; fill: rgb(180,151,231); fill-rule: nonzero; opacity: 1;" transform=" matrix(1 0 0 1 0 0) " stroke-linecap="round"/>
	<path d="M 50.488 73.563 c -7.031 -2.102 -13.433 -5.167 -13.862 -12.275 c -0.496 -8.218 5.066 -15.016 12.687 -13.485 c 7.195 1.445 12.726 5.245 13.862 12.275 C 64.65 69.208 59.557 76.274 50.488 73.563 z" style="stroke: none; stroke-width: 1; stroke-dasharray: none; stroke-linecap: butt; stroke-linejoin: miter; stroke-miterlimit: 10; fill: rgb(180,151,231); fill-rule: nonzero; opacity: 1;" transform=" matrix(1 0 0 1 0 0) " stroke-linecap="round"/>
</g>
</svg>