<svg xmlns="http://www.w3.org/2000/svg" xmlns:xlink="http://www.w3.org/1999/xlink" version="1.1" width="256" height="256" viewBox="0 0 256 256" xml:space="preserve">
<g style="stroke: none; stroke-width: 0; stroke-dasharray: none; stroke-linecap: butt; stroke-linejoin: miter; stroke-miterlimit: 10; fill: none; fill-rule: nonzero; opacity: 1;" transform="translate(1.4065934065934016 1.4065934065934016) scale(2.81 2.81)">
	<path d="M 53.18 66.014 c -7.17 13.122 -10.294 24.58 -24.642 22.422 C 11.95 85.941 -4.939 71.974 1.343 57.434 c 5.931 -13.727 15.848 -23.139 30.34 -22.422 C 50.504 35.943 62.429 49.089 53.18 66.014 z" style="stroke: none; stroke-width: 1; stroke-dasharray: none; stroke-linecap: butt; stroke-linejoin: miter; stroke-miterlimit: 10; fill: rgb(158,186,243); fill-rule: nonzero; opacity: 1;" transform=" matrix(1 0 0 1 0 0) " stroke-linecap="round"/>
	<path d="M 16.96 21.135 c -2.054 -6.409 -3.054 -12.84 2.101 -16.85 c 5.96 -4.635 13.986 -3.951 16.779 2.608 c 2.636 6.192 2.629 12.346 -2.101 16.85 C 27.596 29.592 19.61 29.402 16.96 21.135 z" style="stroke: none; stroke-width: 1; stroke-dasharray: none; stroke-linecap: butt; stroke-linejoin: miter; stroke-miterlimit: 10; fill: rgb(158,186,243); fill-rule: nonzero; opacity: 1;" transform=" matrix(1 0 0 1 0 0) " stroke-linecap="round"/>
	<path d="M 48.022 16.165 C 52.989 9.51 58.442 3.887 64.394 6.119 c 6.882 2.581 9.802 11.044 5.024 18.54 c -4.511 7.077 -10.155 11.5 -16.372 10.046 C 44.971 32.816 41.616 24.749 48.022 16.165 z" style="stroke: none; stroke-width: 1; stroke-dasharray: none; stroke-linecap: butt; stroke-linejoin: miter; stroke-miterlimit: 10; fill: rgb(158,186,243); fill-rule: nonzero; opacity: 1;" transform=" matrix(1 0 0 1 0 0) " stroke-linecap="round"/>
	<path d="M 68.595 38.862 c 5.982 -3.083 12.161 -5.13 16.965 -0.707 c 5.555 5.114 6.204 13.143 0.195 16.979 c -5.673 3.622 -11.744 4.629 -16.965 0.707 C 62.008 50.747 60.879 42.839 68.595 38.862 z" style="stroke: none; stroke-width: 1; stroke-dasharray: none; stroke-linecap: butt; stroke-linejoin: miter; stroke-miterlimit: 10; fill: rgb(158,186,243); fill-rule: nonzero; opacity: 1;" transform=" matrix(1 0 0 1 0 0) " stroke-linecap="round"/>
</g>
</svg>