<svg xmlns="http://www.w3.org/2000/svg" xmlns:xlink="http://www.w3.org/1999/xlink" version="1.1" width="256" height="256" viewBox="0 0 256 256" xml:space="preserve">
<g style="stroke: none; stroke-width: 0; stroke-dasharray: none; stroke-linecap: butt; stroke-linejoin: miter; stroke-miterlimit: 10; fill: none; fill-rule: nonzero; opacity: 1;" transform="translate(1.4065934065934016 1.4065934065934016) scale(2.81 2.81)">
	<path d="M 22.339 10.594 c 9.235 4.392 17.357 9.895 16.188 19.287 C 37.175 40.74 27.769 48.325 17.574 44.542 C 7.948 40.97 1.217 34.71 1.386 25.255 C 1.606 12.975 10.427 4.929 22.339 10.594 z" style="stroke: none; stroke-width: 1; stroke-dasharray: none; stroke-linecap: butt; stroke-linejoin: miter; stroke-miterlimit: 10; fill: rgb(102,197,204); fill-rule: nonzero; opacity: 1;" transform=" matrix(1 0 0 1 0 0) " stroke-linecap="round"/>
	<path d="M 71.131 9.763 c -7.206 -0.645 -14.842 3.232 -19.519 9.864 c -4.355 6.174 -5.22 13.265 -2.409 19.372 c 2.644 6.329 7.609 10.734 12.41 14.994 c 2.9 2.571 5.638 5.001 7.751 7.794 c 1.196 1.43 0.927 2.397 0.561 3.08 c -1.071 1.986 -4.44 3.498 -6.872 3.251 c -3.284 -0.586 -4.886 -3.149 -7.226 -7.283 c -1.719 -3.035 -3.67 -6.478 -6.735 -8.638 c -2.596 -2.407 -6.513 -3.553 -10.477 -3.095 c -3.762 0.448 -7.001 2.335 -8.773 5.018 c -2.227 2.863 -3.122 5.825 -3.909 8.439 c -0.356 1.181 -0.7 2.342 -1.164 3.421 c -0.64 1.435 -1.273 2.006 -3.533 2.352 c -5.153 0.745 -9.891 -3.097 -14.516 -6.799 L 4.99 60.155 c -0.002 -0.002 -0.005 -0.005 -0.007 -0.007 H 4.98 c -1.101 -0.87 -2.654 -0.875 -3.775 -0.005 c -1.126 0.875 -1.51 2.389 -0.952 3.64 c 4.614 10.883 12.455 17.237 21.35 17.423 c 0.386 0.035 0.777 0.05 1.169 0.05 c 6.054 0 12.468 -3.949 14.601 -9.022 c 1.179 -2.153 1.874 -4.46 2.487 -6.495 c 0.439 -1.458 0.852 -2.833 1.343 -3.844 c 0.212 -0.419 0.439 -0.85 2.033 -0.224 c 2.487 0.947 4.445 3.379 6.52 5.95 c 2.938 3.643 6.266 7.774 12.054 8.743 c 8.117 1.156 17.859 -2.439 19.908 -11.359 c 2.021 -8.82 -5.03 -16.609 -8.803 -20.775 l -1.781 -1.988 c -7.325 -8.147 -10.113 -11.678 -5.499 -17.279 c 1.854 -2.135 7.183 -4.241 11.842 -3.827 c 1.704 0.149 3.957 0.7 4.849 2.133 c 0.152 0.371 0.135 1.403 -0.521 2.671 c -0.728 1.343 -0.354 2.99 0.889 3.912 c 1.226 0.917 2.903 0.795 3.927 -0.234 c 2.429 -2.302 3.62 -5.17 3.339 -8.217 C 88.754 13.104 79.55 9.586 71.131 9.763 z" style="stroke: none; stroke-width: 1; stroke-dasharray: none; stroke-linecap: butt; stroke-linejoin: miter; stroke-miterlimit: 10; fill: rgb(102,197,204); fill-rule: nonzero; opacity: 1;" transform=" matrix(1 0 0 1 0 0) " stroke-linecap="round"/>
</g>
</svg>