<svg xmlns="http://www.w3.org/2000/svg" xmlns:xlink="http://www.w3.org/1999/xlink" version="1.1" width="256" height="256" viewBox="0 0 256 256" xml:space="preserve">
<g style="stroke: none; stroke-width: 0; stroke-dasharray: none; stroke-linecap: butt; stroke-linejoin: miter; stroke-miterlimit: 10; fill: none; fill-rule: nonzero; opacity: 1;" transform="translate(1.4065934065934016 1.4065934065934016) scale(2.81 2.81)">
	<path d="M 39.24 16.652 c -0.957 7.498 -9.503 13.585 -16.343 10.369 c -5.461 -2.568 -10.835 -9.535 -10.369 -16.343 c 0.516 -7.541 8.944 -11.914 16.343 -10.369 C 35.625 1.719 40.215 9.017 39.24 16.652 z" style="stroke: none; stroke-width: 1; stroke-dasharray: none; stroke-linecap: butt; stroke-linejoin: miter; stroke-miterlimit: 10; fill: rgb(254,136,177); fill-rule: nonzero; opacity: 1;" transform=" matrix(1 0 0 1 0 0) " stroke-linecap="round"/>
	<path d="M 65.208 46.61 c -1.094 -0.004 -1.997 0.802 -2.254 1.866 c -1.872 7.735 -6.426 14.652 -12.543 18.799 c -3.828 2.595 -7.761 3.711 -10.786 3.056 c -4.402 -1.025 -8.003 -3.597 -10.462 -7.809 c -3.934 -6.739 -4.171 -15.793 -2.708 -22.203 c 0.247 -1.083 -0.23 -2.183 -1.229 -2.669 c -4.667 -2.268 -8.977 -3.788 -12.195 -3.023 c -0.839 0.199 -1.426 1.029 -1.582 1.878 c -5.792 31.596 7.12 49.444 21.878 52.745 c 0.054 0.012 0.108 0.024 0.161 0.036 c 9.915 2.145 20.161 -0.586 28.85 -7.691 c 8.261 -6.758 14.423 -17.117 17.552 -29.351 c 0.268 -1.047 -0.176 -2.223 -1.135 -2.723 C 75.004 47.568 70.095 46.628 65.208 46.61 z" style="stroke: none; stroke-width: 1; stroke-dasharray: none; stroke-linecap: butt; stroke-linejoin: miter; stroke-miterlimit: 10; fill: rgb(254,136,177); fill-rule: nonzero; opacity: 1;" transform=" matrix(1 0 0 1 0 0) " stroke-linecap="round"/>
</g>
</svg>