<svg xmlns="http://www.w3.org/2000/svg" xmlns:xlink="http://www.w3.org/1999/xlink" version="1.1" width="256" height="256" viewBox="0 0 256 256" xml:space="preserve">
<g style="stroke: none; stroke-width: 0; stroke-dasharray: none; stroke-linecap: butt; stroke-linejoin: miter; stroke-miterlimit: 10; fill: none; fill-rule: nonzero; opacity: 1;" transform="translate(1.4065934065934016 1.4065934065934016) scale(2.81 2.81)">
	<path d="M 77.686 67.151 c -6.249 -15.366 -14.89 -28.524 -25.921 -39.474 c -0.023 -0.023 -0.048 -0.041 -0.071 -0.063 c 3.779 -5.215 6.685 -11.1 8.69 -17.677 c 1.382 -4.535 -1.867 -9.232 -6.592 -9.62 c -7.779 -0.639 -15.027 -0.375 -21.385 1.397 c -4.254 1.185 -6.518 5.861 -4.938 9.985 c 2.045 5.338 4.177 9.845 6.394 13.537 c -1.956 1.078 -3.709 2.603 -5.079 4.575 c -6.442 9.27 -12.101 22.527 -16.977 39.771 c -2.403 8.499 2.951 17.403 11.638 18.997 c 12.985 2.382 27.469 1.6 42.848 -1.077 C 75.633 85.876 81.258 75.934 77.686 67.151 z M 57.865 81.641 c -8.249 1.513 -17.449 1.016 -27.219 -0.684 c -5.934 -1.033 -9.507 -7.347 -7.238 -12.927 c 3.969 -9.761 9.458 -18.119 16.466 -25.075 c 4.205 -4.174 11.218 -3.509 14.598 1.356 c 4.092 5.889 7.687 14.31 10.785 25.264 C 66.784 74.973 63.383 80.629 57.865 81.641 z" style="stroke: none; stroke-width: 1; stroke-dasharray: none; stroke-linecap: butt; stroke-linejoin: miter; stroke-miterlimit: 10; fill: rgb(102,197,204); fill-rule: nonzero; opacity: 1;" transform=" matrix(1 0 0 1 0 0) " stroke-linecap="round"/>
</g>
</svg>