<svg xmlns="http://www.w3.org/2000/svg" xmlns:xlink="http://www.w3.org/1999/xlink" version="1.1" width="256" height="256" viewBox="0 0 256 256" xml:space="preserve">
<g style="stroke: none; stroke-width: 0; stroke-dasharray: none; stroke-linecap: butt; stroke-linejoin: miter; stroke-miterlimit: 10; fill: none; fill-rule: nonzero; opacity: 1;" transform="translate(1.4065934065934016 1.4065934065934016) scale(2.81 2.81)">
	<path d="M 84.667 51.82 c 2.256 -0.137 4.204 -1.153 4.577 -2.499 c 1.06 -3.816 0.926 -7.22 0.085 -10.38 c -0.391 -1.467 -2.447 -2.847 -4.907 -2.649 c -10.591 0.852 -20.758 1.247 -30.717 1.435 c -0.029 -6.408 -0.116 -12.756 -0.256 -19.047 c 9.858 -0.182 20.232 -0.586 31.217 -1.255 c 2.256 -0.137 4.204 -1.153 4.577 -2.498 c 1.06 -3.817 0.926 -7.221 0.085 -10.38 c -0.391 -1.467 -2.44 -2.58 -4.907 -2.649 C 57.36 1.138 31.047 1.057 5.721 1.872 c -2.496 0.08 -4.514 1.243 -4.844 2.733 c -0.912 4.121 -1.217 7.736 -0.41 10.421 c 0.389 1.296 2.199 2.261 4.37 2.428 c 9.898 0.763 20.568 1.192 31.985 1.298 c -0.301 6.064 -0.482 12.392 -0.537 19 c -10.537 -0.189 -20.792 -0.639 -30.565 -1.485 C 3.233 36.052 1.207 37.51 0.877 39 c -0.912 4.121 -1.217 7.736 -0.41 10.421 c 0.389 1.296 2.199 2.261 4.37 2.428 c 9.769 0.753 20.291 1.181 31.539 1.294 c 0.117 5.848 0.315 11.872 0.619 18.131 c -10.361 0.076 -20.813 0.234 -31.418 0.532 c -2.467 0.069 -4.516 1.183 -4.907 2.649 c -0.841 3.159 -0.975 6.563 0.085 10.38 c 0.374 1.345 2.321 2.362 4.577 2.499 c 30.947 1.883 57.268 1.768 79.83 0.029 c 2.171 -0.167 3.981 -1.132 4.37 -2.428 c 0.806 -2.685 0.501 -6.3 -0.41 -10.421 c -0.33 -1.49 -2.349 -2.653 -4.844 -2.733 c -10.127 -0.326 -20.453 -0.472 -30.88 -0.525 c 0.135 -6.107 0.225 -12.168 0.275 -18.186 C 63.466 52.885 73.765 52.483 84.667 51.82 z" style="stroke: none; stroke-width: 1; stroke-dasharray: none; stroke-linecap: butt; stroke-linejoin: miter; stroke-miterlimit: 10; fill: rgb(180,151,231); fill-rule: nonzero; opacity: 1;" transform=" matrix(1 0 0 1 0 0) " stroke-linecap="round"/>
</g>
</svg>