<svg xmlns="http://www.w3.org/2000/svg" xmlns:xlink="http://www.w3.org/1999/xlink" version="1.1" width="256" height="256" viewBox="0 0 256 256" xml:space="preserve">
<g style="stroke: none; stroke-width: 0; stroke-dasharray: none; stroke-linecap: butt; stroke-linejoin: miter; stroke-miterlimit: 10; fill: none; fill-rule: nonzero; opacity: 1;" transform="translate(1.4065934065934016 1.4065934065934016) scale(2.81 2.81)">
	<path d="M 89.57 34.469 c -0.515 -3.321 -1.243 -8.804 -2.783 -7.685 c -0.751 0.404 -1.514 0.826 -2.28 1.249 c -6.172 3.399 -18.679 12.601 -21.334 9.64 c -0.431 -0.481 -0.629 -1.08 -0.575 -1.734 c 0.177 -2.14 3.006 -4.494 7.991 -8.469 c 0.955 -0.762 1.93 -1.539 2.879 -2.32 c 0.513 -0.422 0.659 -1.16 0.332 -1.738 c -1.148 -2.022 -2.482 -3.656 -4.116 -4.667 c -0.487 -0.301 -1.126 -0.214 -1.564 0.153 c -0.894 0.749 -1.783 1.526 -2.657 2.289 c -4.865 4.242 -9.458 8.249 -12.33 5.047 c -0.666 -0.742 -0.964 -1.769 -0.885 -3.051 c 0.187 -3.036 9.312 -13.585 12.478 -17.095 c 0.492 -0.545 0.492 -1.356 -0.011 -1.891 C 62.523 1.86 60.399 0.1 58.472 0.001 c -0.378 -0.019 -0.745 0.174 -1.005 0.449 c -3.893 4.126 -7.473 11.389 -9.197 18.821 c -2.841 -8.797 -11.635 -11.022 -19.228 -8.405 c -9.093 3.135 -14.421 15.153 -11.878 27.058 c 0.511 2.392 1.269 4.715 2.212 6.895 c -7.985 -2.673 -14.955 0.57 -18.062 6.585 c -3.13 6.059 2.181 13.374 11.527 15.163 c 2.562 0.49 5.398 0.567 8.156 0.281 c -0.681 2.688 -1.015 5.505 -0.899 8.111 c 0.422 9.506 9.072 16.864 15.519 14.641 c 5.872 -2.024 9.535 -9.181 8.938 -16.819 c 1.442 0.77 2.953 1.455 4.51 2.032 c 11.415 4.234 24.075 0.696 28.489 -7.85 c 3.809 -7.375 7.164 -20.153 -0.862 -24.825 c 4.89 -1.684 9.351 -4.013 12.359 -6.338 C 89.453 35.49 89.648 34.97 89.57 34.469 z" style="stroke: none; stroke-width: 1; stroke-dasharray: none; stroke-linecap: butt; stroke-linejoin: miter; stroke-miterlimit: 10; fill: rgb(254,136,177); fill-rule: nonzero; opacity: 1;" transform=" matrix(1 0 0 1 0 0) " stroke-linecap="round"/>
</g>
</svg>