<svg xmlns="http://www.w3.org/2000/svg" xmlns:xlink="http://www.w3.org/1999/xlink" version="1.1" width="256" height="256" viewBox="0 0 256 256" xml:space="preserve">
<g style="stroke: none; stroke-width: 0; stroke-dasharray: none; stroke-linecap: butt; stroke-linejoin: miter; stroke-miterlimit: 10; fill: none; fill-rule: nonzero; opacity: 1;" transform="translate(1.4065934065934016 1.4065934065934016) scale(2.81 2.81)">
	<path d="M 33.932 69.672 c 5.658 0.696 12.17 0.519 19.068 -0.052 c 0.664 -0.055 1.238 -0.634 1.197 -1.299 c -0.34 -5.563 -5.166 -10.402 -9.365 -10.402 c -8.369 0 -11.624 4.691 -12.006 10.413 C 32.782 68.993 33.275 69.592 33.932 69.672 z" style="stroke: none; stroke-width: 1; stroke-dasharray: none; stroke-linecap: butt; stroke-linejoin: miter; stroke-miterlimit: 10; fill: rgb(201,219,116); fill-rule: nonzero; opacity: 1;" transform=" matrix(1 0 0 1 0 0) " stroke-linecap="round"/>
	<path d="M 24.362 69.518 c -0.977 -8.99 5.269 -22.234 19.145 -22.234 c 8.326 0 18.445 9.275 18.389 21.13 c -0.003 0.625 0.443 1.176 1.064 1.255 c 2.797 0.354 5.323 0.428 7.436 0.07 c 0.611 -0.104 1.045 -0.698 1.028 -1.318 c -0.517 -18.533 -14.13 -30.565 -29.627 -30.565 c -11.862 0 -24.74 9.804 -25.451 30.82 c -0.021 0.608 0.377 1.172 0.967 1.319 C 19.004 70.417 21.965 69.982 24.362 69.518 z" style="stroke: none; stroke-width: 1; stroke-dasharray: none; stroke-linecap: butt; stroke-linejoin: miter; stroke-miterlimit: 10; fill: rgb(201,219,116); fill-rule: nonzero; opacity: 1;" transform=" matrix(1 0 0 1 0 0) " stroke-linecap="round"/>
	<path d="M 81.113 70.096 c -0.616 -0.069 -1.094 -0.61 -1.104 -1.23 c -0.425 -25.573 -15.706 -39.973 -39.606 -39.973 c -14.014 0 -33.482 8.043 -32.247 39.763 c 0.02 0.508 -0.249 1.037 -0.723 1.222 c -2.092 0.816 -7.545 0.659 -7.431 -0.36 c 0 -47.246 37.822 -49.94 48.93 -49.94 c 27.613 0 40.761 20.273 41.068 49.34 c 0.006 0.6 -0.382 1.178 -0.972 1.285 C 87.053 70.559 84.29 70.45 81.113 70.096 z" style="stroke: none; stroke-width: 1; stroke-dasharray: none; stroke-linecap: butt; stroke-linejoin: miter; stroke-miterlimit: 10; fill: rgb(201,219,116); fill-rule: nonzero; opacity: 1;" transform=" matrix(1 0 0 1 0 0) " stroke-linecap="round"/>
</g>
</svg>