<svg xmlns="http://www.w3.org/2000/svg" xmlns:xlink="http://www.w3.org/1999/xlink" version="1.1" width="256" height="256" viewBox="0 0 256 256" xml:space="preserve">
<g style="stroke: none; stroke-width: 0; stroke-dasharray: none; stroke-linecap: butt; stroke-linejoin: miter; stroke-miterlimit: 10; fill: none; fill-rule: nonzero; opacity: 1;" transform="translate(1.4065934065934016 1.4065934065934016) scale(2.81 2.81)">
	<path d="M 88.405 11.245 c 0 -1.608 -1.483 -2.999 -3.456 -3.188 C 78.586 7.447 72.356 7.305 66.35 7.95 c -2.021 0.217 -3.454 1.746 -3.327 3.394 c 0.412 5.326 0.654 10.209 -0.234 12.17 c -2.341 -1.226 -7.316 -0.918 -12.703 -0.371 c -2.224 0.226 -3.912 1.715 -4.082 3.524 c -0.701 7.46 2.906 15.014 0.589 15.014 c -5.944 -1.548 -11.889 -1.785 -17.833 -0.712 c -2.141 0.386 -3.582 2.016 -3.727 3.787 c -0.772 9.423 5.135 16.806 0.495 16.806 c -5.541 -1.157 -10.894 -1.688 -15.99 -1.366 c -5.333 0.337 -9.417 3.764 -9.527 8.093 c -0.072 2.805 0.199 5.951 0.592 9.151 c 0.351 2.857 3.34 5.031 6.887 5.031 c 29.165 -1.27 58.263 0 77.548 0 c 1.919 0 3.563 -1.45 3.796 -3.355 C 91.688 55.764 88.405 21.765 88.405 11.245 z" style="stroke: none; stroke-width: 1; stroke-dasharray: none; stroke-linecap: butt; stroke-linejoin: miter; stroke-miterlimit: 10; fill: rgb(158,186,243); fill-rule: nonzero; opacity: 1;" transform=" matrix(1 0 0 1 0 0) " stroke-linecap="round"/>
</g>
</svg>