<svg xmlns="http://www.w3.org/2000/svg" xmlns:xlink="http://www.w3.org/1999/xlink" version="1.1" width="256" height="256" viewBox="0 0 256 256" xml:space="preserve">
<g style="stroke: none; stroke-width: 0; stroke-dasharray: none; stroke-linecap: butt; stroke-linejoin: miter; stroke-miterlimit: 10; fill: none; fill-rule: nonzero; opacity: 1;" transform="translate(1.4065934065934016 1.4065934065934016) scale(2.81 2.81)">
	<path d="M 67.286 71.073 c -11.852 -40.367 -38.489 -47.971 -42.458 -0.588 c -0.082 0.98 -0.819 1.843 -1.784 2.03 c -8.632 1.676 -15.89 1.843 -21.498 0.196 c -0.955 -0.281 -1.578 -1.248 -1.545 -2.243 c 1.123 -34.711 19.868 -54.331 45.931 -54.331 c 22.434 0 34.767 21.049 43.984 53.619 c 0.36 1.273 -0.487 2.617 -1.796 2.812 c -7.924 1.18 -14.811 1.505 -19.472 -0.004 C 67.973 72.345 67.486 71.754 67.286 71.073 z" style="stroke: none; stroke-width: 1; stroke-dasharray: none; stroke-linecap: butt; stroke-linejoin: miter; stroke-miterlimit: 10; fill: rgb(158,186,243); fill-rule: nonzero; opacity: 1;" transform=" matrix(1 0 0 1 0 0) " stroke-linecap="round"/>
</g>
</svg>