<svg xmlns="http://www.w3.org/2000/svg" xmlns:xlink="http://www.w3.org/1999/xlink" version="1.1" width="256" height="256" viewBox="0 0 256 256" xml:space="preserve">
<g style="stroke: none; stroke-width: 0; stroke-dasharray: none; stroke-linecap: butt; stroke-linejoin: miter; stroke-miterlimit: 10; fill: none; fill-rule: nonzero; opacity: 1;" transform="translate(1.4065934065934016 1.4065934065934016) scale(2.81 2.81)">
	<path d="M 15.857 3.18 C 8.474 7.515 3.237 13.419 0.244 20.965 c -0.387 0.975 -0.308 2.083 0.2 3.001 c 11.009 19.897 34.985 40.963 66.594 62.717 c 1.114 0.766 2.606 0.852 3.782 0.185 c 10.534 -5.98 16.741 -12.655 19.021 -19.962 c 0.557 -1.786 -0.394 -3.792 -2.179 -4.356 c -2.366 -0.748 -4.889 -0.872 -7.53 -0.531 c -2.495 0.322 -4.404 -1.959 -3.867 -4.417 c 0.752 -3.444 0.6 -7.007 -0.463 -10.688 c -0.389 -1.347 -1.635 -2.309 -3.033 -2.419 c -3.234 -0.255 -6.364 -0.185 -9.383 0.234 c -2.694 0.374 -4.78 -2.132 -3.895 -4.703 c 0.853 -2.478 1.204 -5.081 1.072 -7.804 c -0.082 -1.696 -1.34 -3.094 -3.011 -3.396 c -3.837 -0.693 -7.584 -0.798 -11.226 -0.206 c -2.511 0.408 -4.698 -1.719 -4.141 -4.201 c 0.623 -2.774 0.752 -5.714 0.325 -8.841 c -0.228 -1.667 -1.558 -2.979 -3.232 -3.149 c -3.799 -0.384 -7.542 0.235 -11.247 1.555 c -1.996 0.711 -4.087 -0.454 -4.565 -2.518 c -0.555 -2.4 -1.429 -4.719 -2.646 -6.952 C 19.862 2.749 17.59 2.163 15.857 3.18 z" style="stroke: none; stroke-width: 1; stroke-dasharray: none; stroke-linecap: butt; stroke-linejoin: miter; stroke-miterlimit: 10; fill: rgb(248,156,116); fill-rule: nonzero; opacity: 1;" transform=" matrix(1 0 0 1 0 0) " stroke-linecap="round"/>
</g>
</svg>