<svg xmlns="http://www.w3.org/2000/svg" xmlns:xlink="http://www.w3.org/1999/xlink" version="1.1" width="256" height="256" viewBox="0 0 256 256" xml:space="preserve">
<g style="stroke: none; stroke-width: 0; stroke-dasharray: none; stroke-linecap: butt; stroke-linejoin: miter; stroke-miterlimit: 10; fill: none; fill-rule: nonzero; opacity: 1;" transform="translate(1.4065934065934016 1.4065934065934016) scale(2.81 2.81)">
	<path d="M 75.054 64.351 c 0.935 1.569 0.137 3.71 -1.287 4.854 c -1.424 1.144 -3.294 1.534 -5.091 1.867 c -11.006 1.361 -16.67 -7.467 -16.803 2.986 c -0.185 5.214 0.035 9.792 0.851 13.431 c 0.146 0.653 -0.108 1.352 -0.712 1.64 c -3.214 1.537 -7.74 0.794 -11.456 -0.355 c -0.78 -0.241 -1.155 -1.069 -0.916 -1.849 c 1.236 -4.023 1.444 -8.49 1.052 -13.216 c -0.272 -2.38 -1.234 -4.678 -2.737 -6.543 c -0.487 -0.604 -1.047 -1.177 -1.753 -1.501 c -0.926 -0.426 -1.99 -0.378 -3.009 -0.342 c -3.649 0.127 -7.308 -0.013 -10.937 -0.418 c -1.139 -0.127 -2.294 -0.286 -3.336 -0.761 c -3.528 -1.608 -4.534 -6.635 -2.609 -10.002 c 3.366 -6.055 11.025 -3.011 17.344 -5.647 c 1.468 -0.635 2.884 -1.992 2.664 -3.576 c -0.17 -1.225 -1.3 -2.135 -2.494 -2.457 c -1.194 -0.322 -2.457 -0.184 -3.69 -0.085 c -8.161 1.022 -10.929 0.825 -14.679 -2.858 c -2.121 -1.954 -1.674 -5.359 -1.029 -8.17 c 2.998 -10.966 12.021 -0.525 21.773 -1.878 c 3.068 -0.643 4.426 -2.459 1.886 -6.297 c -0.909 -1.374 -1.878 -2.715 -2.622 -4.184 c -1.777 -3.51 -2.929 -7.096 -2.378 -10.991 c 0.218 -1.541 1.865 -4.893 5.187 -6.498 c 7.423 -3.388 13.906 -0.858 15.545 5.807 c 1.475 4.399 -1.816 9.637 -1.82 14.629 c -0.001 1.181 0.054 2.502 0.905 3.321 c 1.008 0.971 2.702 0.758 3.903 0.038 c 1.2 -0.72 2.109 -1.835 3.231 -2.672 c 2.038 -1.521 5.1 -2.79 7.241 -1.359 c 3.29 2.395 3.938 6.375 -2.12 11.652 c -3.908 3.455 -10.772 2.84 -11.764 6.407 c -1.862 5.675 7.448 1.458 12.948 1.345 c 3.4 -0.069 6.889 1.734 8.735 4.59 c 1.846 2.856 1.202 7.381 -1.895 8.787 c -0.994 0.451 -2.106 0.549 -3.194 0.64 c -3.439 0.288 -4.377 -0.187 -7.815 0.101 c -0.921 0.077 -1.893 0.172 -2.642 0.714 s -1.138 1.695 -0.555 2.412 C 61.887 61.627 71.976 57.971 75.054 64.351 z" style="stroke: none; stroke-width: 1; stroke-dasharray: none; stroke-linecap: butt; stroke-linejoin: miter; stroke-miterlimit: 10; fill: rgb(201,219,116); fill-rule: nonzero; opacity: 1;" transform=" matrix(1 0 0 1 0 0) " stroke-linecap="round"/>
</g>
</svg>