<svg xmlns="http://www.w3.org/2000/svg" xmlns:xlink="http://www.w3.org/1999/xlink" version="1.1" width="256" height="256" viewBox="0 0 256 256" xml:space="preserve">
<g style="stroke: none; stroke-width: 0; stroke-dasharray: none; stroke-linecap: butt; stroke-linejoin: miter; stroke-miterlimit: 10; fill: none; fill-rule: nonzero; opacity: 1;" transform="translate(1.4065934065934016 1.4065934065934016) scale(2.81 2.81)">
	<path d="M 2.528 35.926 c 3.052 -2.119 4.282 -0.647 5.851 0.87 c 23.06 22.288 37.164 42.034 54.611 12.753 c 2.797 -5.067 9.669 4.125 7.419 6.639 C 59.473 68.41 49.797 82.672 35.24 73.623 c -2.2 -1.367 -4.198 -3.063 -6.037 -4.887 L 1.531 43.546 C -0.88 41.352 -0.366 37.427 2.528 35.926 L 2.528 35.926 z" style="stroke: none; stroke-width: 1; stroke-dasharray: none; stroke-linecap: butt; stroke-linejoin: miter; stroke-miterlimit: 10; fill: rgb(248,156,116); fill-rule: nonzero; opacity: 1;" transform=" matrix(1 0 0 1 0 0) " stroke-linecap="round"/>
	<path d="M 39.986 57.879 c -5.631 -1.141 -8.54 -5.691 -7.878 -12.188 c 0.311 -3.09 1.948 -6.208 4.489 -8.552 c 2.341 -2.163 5.169 -3.365 7.89 -3.387 c 0.336 -0.003 0.673 0.012 1.006 0.046 c 3.39 0.344 7.123 3.068 9.081 6.624 c 1.283 2.327 1.514 4.563 0.647 6.297 c -0.346 0.67 -0.828 0.853 -1.172 0.891 l -2.438 -0.759 c -2.819 -0.522 -5.694 0.141 -7.324 1.678 c -1.216 1.15 -1.706 2.72 -1.462 4.663 C 43.311 57.235 43.463 58.82 39.986 57.879 z" style="stroke: none; stroke-width: 1; stroke-dasharray: none; stroke-linecap: butt; stroke-linejoin: miter; stroke-miterlimit: 10; fill: rgb(248,156,116); fill-rule: nonzero; opacity: 1;" transform=" matrix(1 0 0 1 0 0) " stroke-linecap="round"/>
	<path d="M 87.472 54.074 c -3.052 2.119 -4.282 0.647 -5.851 -0.87 C 58.562 30.916 44.457 11.169 27.01 40.451 c -2.797 5.067 -9.669 -4.125 -7.419 -6.639 C 30.527 21.59 40.203 7.328 54.76 16.377 c 2.2 1.367 4.198 3.063 6.037 4.887 l 27.673 25.19 C 90.88 48.648 90.366 52.573 87.472 54.074 L 87.472 54.074 z" style="stroke: none; stroke-width: 1; stroke-dasharray: none; stroke-linecap: butt; stroke-linejoin: miter; stroke-miterlimit: 10; fill: rgb(248,156,116); fill-rule: nonzero; opacity: 1;" transform=" matrix(1 0 0 1 0 0) " stroke-linecap="round"/>
</g>
</svg>