<svg xmlns="http://www.w3.org/2000/svg" xmlns:xlink="http://www.w3.org/1999/xlink" version="1.1" width="256" height="256" viewBox="0 0 256 256" xml:space="preserve">
<g style="stroke: none; stroke-width: 0; stroke-dasharray: none; stroke-linecap: butt; stroke-linejoin: miter; stroke-miterlimit: 10; fill: none; fill-rule: nonzero; opacity: 1;" transform="translate(1.4065934065934016 1.4065934065934016) scale(2.81 2.81)">
	<path d="M 11.121 43.525 c -2.038 10.546 -2.665 25.383 -0.008 39.573 c 0.49 2.618 2.44 4.788 5.015 5.47 c 6.768 1.793 18.355 1.93 25.353 0.256 c 2.715 -0.65 4.702 -2.924 5.263 -5.659 c 1.574 -7.665 1.54 -13.004 0.807 -18.171 c -0.329 -2.315 1.734 -4.255 4.034 -3.834 c 12.679 2.323 29.067 4.783 29.067 -3.272 C 79.482 -17.052 20.161 -16.403 11.121 43.525 z M 58.742 33.724 c -5.338 0.362 -9.743 -0.861 -11.349 -4.602 c -2.086 -4.859 0.786 -9.632 7.613 -9.592 c 5.294 0.031 10.243 0.703 11.349 4.602 C 67.635 28.64 64.396 33.34 58.742 33.724 z" style="stroke: none; stroke-width: 1; stroke-dasharray: none; stroke-linecap: butt; stroke-linejoin: miter; stroke-miterlimit: 10; fill: rgb(248,156,116); fill-rule: nonzero; opacity: 1;" transform=" matrix(1 0 0 1 0 0) " stroke-linecap="round"/>
</g>
</svg>