<svg xmlns="http://www.w3.org/2000/svg" xmlns:xlink="http://www.w3.org/1999/xlink" version="1.1" width="256" height="256" viewBox="0 0 256 256" xml:space="preserve">
<g style="stroke: none; stroke-width: 0; stroke-dasharray: none; stroke-linecap: butt; stroke-linejoin: miter; stroke-miterlimit: 10; fill: none; fill-rule: nonzero; opacity: 1;" transform="translate(1.4065934065934016 1.4065934065934016) scale(2.81 2.81)">
	<path d="M 85.047 49.438 c -5.242 -18.522 -12.255 -30.492 -25.013 -30.492 c -8.988 0 -16.427 4.127 -21.047 11.758 c -3.149 -4.146 -7.031 -6.486 -12.036 -6.486 c -11.688 0 -20.095 8.799 -20.598 24.365 c -0.014 0.446 0.265 0.88 0.693 1.006 c 2.515 0.739 5.77 0.664 9.641 -0.088 c 0.433 -0.084 0.763 -0.471 0.8 -0.91 c 1.583 -18.899 11.197 -18.26 17.046 -5.159 c -0.326 2.027 -0.545 4.156 -0.618 6.411 c -0.018 0.566 0.336 1.116 0.879 1.275 c 3.189 0.937 7.317 0.842 12.225 -0.111 c 0.549 -0.107 0.968 -0.597 1.014 -1.154 c 2.257 -26.946 17.405 -22.622 24.145 0.334 c 0.114 0.388 0.391 0.724 0.775 0.848 c 2.65 0.858 6.567 0.673 11.073 0.002 C 84.77 50.926 85.251 50.162 85.047 49.438 z" style="stroke: none; stroke-width: 1; stroke-dasharray: none; stroke-linecap: butt; stroke-linejoin: miter; stroke-miterlimit: 10; fill: rgb(254,136,177); fill-rule: nonzero; opacity: 1;" transform=" matrix(1 0 0 1 0 0) " stroke-linecap="round"/>
	<path d="M 87.807 70.041 c -10.232 1.311 -71.354 1.398 -85.388 -0.022 c -1.023 -0.103 -1.906 -0.869 -2.076 -1.884 c -0.481 -2.877 -0.42 -5.443 -0.039 -7.825 c 0.177 -1.106 1.107 -1.945 2.225 -1.997 c 12.272 -0.572 73.391 -0.633 84.876 -0.019 c 1.132 0.06 2.047 0.937 2.197 2.06 c 0.413 3.107 0.552 5.831 0.186 7.856 C 89.612 69.188 88.791 69.915 87.807 70.041 z" style="stroke: none; stroke-width: 1; stroke-dasharray: none; stroke-linecap: butt; stroke-linejoin: miter; stroke-miterlimit: 10; fill: rgb(254,136,177); fill-rule: nonzero; opacity: 1;" transform=" matrix(1 0 0 1 0 0) " stroke-linecap="round"/>
</g>
</svg>