<svg xmlns="http://www.w3.org/2000/svg" xmlns:xlink="http://www.w3.org/1999/xlink" version="1.1" width="256" height="256" viewBox="0 0 256 256" xml:space="preserve">
<g style="stroke: none; stroke-width: 0; stroke-dasharray: none; stroke-linecap: butt; stroke-linejoin: miter; stroke-miterlimit: 10; fill: none; fill-rule: nonzero; opacity: 1;" transform="translate(1.4065934065934016 1.4065934065934016) scale(2.81 2.81)">
	<path d="M 3.344 62.613 c 1.675 2.474 3.916 5.008 6.897 5.211 c 1.9 0.129 3.717 -0.736 5.372 -1.676 c 5.409 -3.07 10.218 -7.193 14.079 -12.069 c -1.844 6.095 -3.687 12.189 -5.531 18.284 c -0.599 1.981 -1.205 4.013 -1.084 6.079 s 1.121 4.208 2.981 5.118 c 3.462 1.694 7.291 -1.579 9.331 -4.85 c 3.244 -5.203 5.165 -11.187 5.855 -17.28 c 1.655 9.362 6.588 18.11 13.743 24.37 c 0.621 0.543 1.324 1.094 2.148 1.12 c 0.709 0.022 1.375 -0.359 1.894 -0.842 c 2.571 -2.392 1.937 -6.546 1.1 -9.956 c -1.178 -4.804 -2.355 -9.609 -3.533 -14.413 c 2.732 2.658 5.743 5.029 8.967 7.062 c 2.547 1.606 5.347 3.035 8.357 3.138 c 3.01 0.102 6.254 -1.453 7.285 -4.282 c 0.188 -0.515 0.299 -1.08 0.169 -1.612 c -0.111 -0.457 -0.39 -0.854 -0.666 -1.235 c -3.798 -5.24 -8.312 -9.96 -13.377 -13.988 c 7.846 1.539 16.43 -1.604 21.427 -7.845 c 0.647 -0.808 1.263 -1.741 1.242 -2.777 c -0.033 -1.634 -1.582 -2.783 -3.023 -3.554 c -4.891 -2.616 -10.46 -3.89 -15.997 -3.827 c -3.007 0.034 -13.538 3.825 -15.024 2.444 c 2.354 -3.015 5.133 -5.729 7.489 -8.776 c 2.913 -3.77 5.69 -8.361 4.653 -13.011 c -0.228 -1.023 -0.675 -2.052 -1.516 -2.679 c -1.98 -1.477 -4.754 -0.036 -6.729 1.449 c -6.005 4.513 -11.6 9.571 -16.695 15.092 c 0.709 -5.628 -0.037 -11.433 -2.146 -16.7 c -1.634 -4.081 -5.275 -8.38 -9.557 -7.382 c -2.745 0.64 -4.591 3.384 -5.056 6.164 s 0.169 5.612 0.801 8.358 c 0.97 4.22 1.94 8.44 2.91 12.659 c -3.789 -4.147 -8.639 -7.508 -14.136 -8.658 C 10.475 20.597 3.196 19.4 0.355 25.904 c -3.008 7.774 13.81 14.957 23.599 16.829 C 15.982 42.189 9.09 48.045 3.769 54.006 C 1.775 56.958 1.957 59.631 3.344 62.613 z" style="stroke: none; stroke-width: 1; stroke-dasharray: none; stroke-linecap: butt; stroke-linejoin: miter; stroke-miterlimit: 10; fill: rgb(139,224,164); fill-rule: nonzero; opacity: 1;" transform=" matrix(1 0 0 1 0 0) " stroke-linecap="round"/>
</g>
</svg>