<svg xmlns="http://www.w3.org/2000/svg" xmlns:xlink="http://www.w3.org/1999/xlink" version="1.1" width="256" height="256" viewBox="0 0 256 256" xml:space="preserve">
<g style="stroke: none; stroke-width: 0; stroke-dasharray: none; stroke-linecap: butt; stroke-linejoin: miter; stroke-miterlimit: 10; fill: none; fill-rule: nonzero; opacity: 1;" transform="translate(1.4065934065934016 1.4065934065934016) scale(2.81 2.81)">
	<path d="M 50.554 89.388 c 39.321 2.82 29.707 -58.434 25.065 -83.964 c 0 -4.834 -9.748 -3.25 -9.748 0 c 0 17.407 4.642 70.503 -20.424 70.503 c -26.922 0 -21.929 -55.981 -21.352 -71.663 c 0 -6.575 -13.925 -4.718 -13.925 0 c 0 22.939 -4.243 80.971 19.369 85.115 c 3.568 0.626 7.232 0.724 10.85 0.536 L 50.554 89.388 z" style="stroke: none; stroke-width: 1; stroke-dasharray: none; stroke-linecap: butt; stroke-linejoin: miter; stroke-miterlimit: 10; fill: rgb(248,156,116); fill-rule: nonzero; opacity: 1;" transform=" matrix(1 0 0 1 0 0) " stroke-linecap="round"/>
	<path d="M 52.936 55.681 c 0.406 4.353 -3.649 8.868 -7.916 7.916 c -3.407 -0.76 -7.319 -4.014 -7.916 -7.916 c -0.661 -4.322 3.544 -7.854 7.916 -7.916 C 49.01 47.708 52.523 51.248 52.936 55.681 z" style="stroke: none; stroke-width: 1; stroke-dasharray: none; stroke-linecap: butt; stroke-linejoin: miter; stroke-miterlimit: 10; fill: rgb(248,156,116); fill-rule: nonzero; opacity: 1;" transform=" matrix(1 0 0 1 0 0) " stroke-linecap="round"/>
	<path d="M 49.462 40.39 c -3.394 2.756 -9.401 1.892 -10.979 -2.184 c -1.261 -3.255 -0.729 -8.316 2.184 -10.979 c 3.226 -2.95 8.5 -1.416 10.979 2.184 C 53.91 32.697 52.918 37.583 49.462 40.39 z" style="stroke: none; stroke-width: 1; stroke-dasharray: none; stroke-linecap: butt; stroke-linejoin: miter; stroke-miterlimit: 10; fill: rgb(248,156,116); fill-rule: nonzero; opacity: 1;" transform=" matrix(1 0 0 1 0 0) " stroke-linecap="round"/>
	<path d="M 49.462 17.186 c -3.394 2.756 -9.401 1.892 -10.979 -2.184 c -1.261 -3.255 -0.729 -8.316 2.184 -10.979 c 3.226 -2.95 8.5 -1.416 10.979 2.184 C 53.91 9.493 52.918 14.38 49.462 17.186 z" style="stroke: none; stroke-width: 1; stroke-dasharray: none; stroke-linecap: butt; stroke-linejoin: miter; stroke-miterlimit: 10; fill: rgb(248,156,116); fill-rule: nonzero; opacity: 1;" transform=" matrix(1 0 0 1 0 0) " stroke-linecap="round"/>
</g>
</svg>