<svg xmlns="http://www.w3.org/2000/svg" xmlns:xlink="http://www.w3.org/1999/xlink" version="1.1" width="256" height="256" viewBox="0 0 256 256" xml:space="preserve">
<g style="stroke: none; stroke-width: 0; stroke-dasharray: none; stroke-linecap: butt; stroke-linejoin: miter; stroke-miterlimit: 10; fill: none; fill-rule: nonzero; opacity: 1;" transform="translate(1.4065934065934016 1.4065934065934016) scale(2.81 2.81)">
	<path d="M 76.482 88.249 c -17.686 2.266 -38.317 2.416 -62.575 -0.038 c -1.768 -0.179 -3.295 -1.503 -3.588 -3.256 c -0.831 -4.973 -0.726 -9.409 -0.067 -13.525 c 0.306 -1.911 1.913 -3.362 3.846 -3.452 c 21.213 -0.989 41.839 -1.094 61.691 -0.033 c 1.956 0.105 3.539 1.619 3.797 3.561 c 0.715 5.37 0.954 10.079 0.322 13.579 C 79.603 86.774 78.184 88.031 76.482 88.249 z" style="stroke: none; stroke-width: 1; stroke-dasharray: none; stroke-linecap: butt; stroke-linejoin: miter; stroke-miterlimit: 10; fill: rgb(139,224,164); fill-rule: nonzero; opacity: 1;" transform=" matrix(1 0 0 1 0 0) " stroke-linecap="round"/>
	<path d="M 21.959 43.944 c 12.944 -1.658 28.044 -1.768 45.798 0.028 c 1.294 0.131 2.412 1.1 2.626 2.383 c 0.608 3.64 0.532 6.886 0.049 9.899 c -0.224 1.399 -1.4 2.461 -2.815 2.527 c -15.526 0.724 -30.621 0.8 -45.151 0.024 c -1.432 -0.077 -2.59 -1.185 -2.779 -2.606 c -0.523 -3.93 -0.698 -7.377 -0.235 -9.938 C 19.675 45.023 20.713 44.103 21.959 43.944 z" style="stroke: none; stroke-width: 1; stroke-dasharray: none; stroke-linecap: butt; stroke-linejoin: miter; stroke-miterlimit: 10; fill: rgb(139,224,164); fill-rule: nonzero; opacity: 1;" transform=" matrix(1 0 0 1 0 0) " stroke-linecap="round"/>
	<path d="M 28.881 35.087 c 9.055 1.16 19.618 1.237 32.038 -0.019 c 0.905 -0.092 1.687 -0.769 1.837 -1.667 c 0.425 -2.546 0.372 -4.817 0.034 -6.925 c -0.157 -0.979 -0.979 -1.721 -1.969 -1.767 c -10.861 -0.506 -21.421 -0.56 -31.585 -0.017 c -1.001 0.054 -1.812 0.829 -1.944 1.823 c -0.366 2.749 -0.488 5.161 -0.165 6.952 C 27.283 34.331 28.01 34.975 28.881 35.087 z" style="stroke: none; stroke-width: 1; stroke-dasharray: none; stroke-linecap: butt; stroke-linejoin: miter; stroke-miterlimit: 10; fill: rgb(139,224,164); fill-rule: nonzero; opacity: 1;" transform=" matrix(1 0 0 1 0 0) " stroke-linecap="round"/>
	<path d="M 50.366 15.135 c -3.225 3.451 -9.782 3.414 -12.074 -0.716 c -1.83 -3.298 -2.008 -8.793 0.716 -12.074 c 3.017 -3.634 8.888 -2.771 12.074 0.716 C 53.99 6.244 53.651 11.62 50.366 15.135 z" style="stroke: none; stroke-width: 1; stroke-dasharray: none; stroke-linecap: butt; stroke-linejoin: miter; stroke-miterlimit: 10; fill: rgb(139,224,164); fill-rule: nonzero; opacity: 1;" transform=" matrix(1 0 0 1 0 0) " stroke-linecap="round"/>
</g>
</svg>