<svg xmlns="http://www.w3.org/2000/svg" xmlns:xlink="http://www.w3.org/1999/xlink" version="1.1" width="256" height="256" viewBox="0 0 256 256" xml:space="preserve">
<g style="stroke: none; stroke-width: 0; stroke-dasharray: none; stroke-linecap: butt; stroke-linejoin: miter; stroke-miterlimit: 10; fill: none; fill-rule: nonzero; opacity: 1;" transform="translate(1.4065934065934016 1.4065934065934016) scale(2.81 2.81)">
	<path d="M 63.466 84.023 l 2.759 -1.511 c 5.691 -3.117 10.362 -7.891 13.088 -13.779 c 0.631 -1.363 1.211 -2.751 1.76 -4.14 c 5.454 -13.792 8.483 -28.539 8.904 -43.365 c 0.056 -1.953 0.056 -3.964 -0.659 -5.782 s -2.311 -3.42 -4.259 -3.573 c -2.182 -0.171 -4.163 1.527 -5.038 3.533 s -0.889 4.268 -0.897 6.457 c -0.017 5.019 -0.104 10.184 -2.041 14.813 c -0.55 1.314 -1.675 2.78 -3.058 2.437 c -0.916 -0.227 -1.446 -1.165 -1.811 -2.035 c -1.391 -3.315 -1.946 -6.955 -1.796 -10.547 c 0.152 -3.651 1.012 -14.598 0.249 -18.171 s -3.958 -7.048 -7.555 -6.403 c -3.883 0.696 -5.499 5.387 -5.729 9.325 c -0.139 2.369 -0.052 12.005 0.26 14.358 c 0.521 3.934 1.58 8.294 -0.615 11.6 c -0.562 0.846 -1.425 1.61 -2.441 1.606 c -1.2 -0.004 -2.118 -1.044 -2.777 -2.047 c -2.43 -3.706 -3.658 -15.44 -3.455 -19.867 c 0.176 -3.838 1.145 -8.386 -1.704 -10.963 c -1.89 -1.71 -5 -1.677 -7.066 -0.185 c -2.066 1.492 -3.082 4.183 -2.881 6.724 c 0.166 2.1 1.061 11.313 1.732 13.31 c 0.839 2.496 1.338 5.107 1.479 7.737 c 0.093 1.73 -0.109 3.742 -1.54 4.718 c -2.296 1.565 -5.233 -0.896 -6.581 -3.325 c -1.763 -3.177 -2.849 -6.727 -3.168 -10.346 c -0.338 -3.843 -0.479 -8.779 -4.112 -10.078 c -2.44 -0.872 -5.271 0.784 -6.329 3.15 s -0.656 5.161 0.357 7.547 c 1.012 2.386 2.136 5.648 3.492 7.856 c 5.375 8.754 7.788 18.378 5.846 28.465 c -0.21 1.093 -0.752 2.426 -1.865 2.439 c -0.593 0.007 -1.103 -0.395 -1.55 -0.785 c -2.724 -2.374 -5.159 -5.08 -7.235 -8.037 c -1.823 -2.597 -3.419 -5.443 -5.903 -7.417 s -6.221 -2.839 -8.813 -1.007 c -2.377 1.68 -2.978 5.088 -2.192 7.89 s 2.669 5.146 4.507 7.403 c 2.337 2.871 4.674 5.742 7.011 8.613 c 2.79 3.428 5.636 6.907 9.294 9.388 C 36.069 90.04 51.736 90.011 63.466 84.023 z" style="stroke: none; stroke-width: 1; stroke-dasharray: none; stroke-linecap: butt; stroke-linejoin: miter; stroke-miterlimit: 10; fill: rgb(248,156,116); fill-rule: nonzero; opacity: 1;" transform=" matrix(1 0 0 1 0 0) " stroke-linecap="round"/>
</g>
</svg>