<svg xmlns="http://www.w3.org/2000/svg" xmlns:xlink="http://www.w3.org/1999/xlink" version="1.1" width="256" height="256" viewBox="0 0 256 256" xml:space="preserve">
<g style="stroke: none; stroke-width: 0; stroke-dasharray: none; stroke-linecap: butt; stroke-linejoin: miter; stroke-miterlimit: 10; fill: none; fill-rule: nonzero; opacity: 1;" transform="translate(1.4065934065934016 1.4065934065934016) scale(2.81 2.81)">
	<path d="M 69.429 20.614 c -14.595 -3.909 -27.203 1.965 -36.883 12.469 c -0.773 0.839 -1.411 1.703 -1.984 2.577 c -0.979 -1.134 -2.038 -2.171 -3.2 -3.041 c -9.029 -6.777 -18.363 -6.527 -25.075 0.792 c -4.496 4.31 -2.013 5.498 4.409 8.385 c 3.094 1.372 4.982 3.498 5.6 6.325 c 0.821 3.785 -0.762 8.634 -4.05 12.342 l -3.299 2.933 c -0.251 0.543 -0.409 1.42 0.274 2.53 c 1.793 2.831 5.311 4.484 9.901 4.66 c 7.013 0.273 14.378 -2.825 17.911 -7.538 c 0.347 -0.462 0.669 -0.948 0.965 -1.448 c 0.576 -0.974 1.044 -2.025 1.426 -3.123 c 2.923 2.533 6.585 4.697 10.858 6.253 c 14.068 5.121 26.097 -2.769 36.883 -12.469 C 97.075 39.748 88.386 25.691 69.429 20.614 z M 78.815 37.526 c -2.786 3.071 -6.434 4.956 -10.684 4.24 c -5.52 -0.931 -8.08 -4.534 -4.07 -8.247 c 3.109 -2.879 6.584 -5.297 10.684 -4.24 C 79.485 30.502 81.766 34.274 78.815 37.526 z" style="stroke: none; stroke-width: 1; stroke-dasharray: none; stroke-linecap: butt; stroke-linejoin: miter; stroke-miterlimit: 10; fill: rgb(220,177,242); fill-rule: nonzero; opacity: 1;" transform=" matrix(1 0 0 1 0 0) " stroke-linecap="round"/>
</g>
</svg>