<svg xmlns="http://www.w3.org/2000/svg" xmlns:xlink="http://www.w3.org/1999/xlink" version="1.1" width="256" height="256" viewBox="0 0 256 256" xml:space="preserve">
<g style="stroke: none; stroke-width: 0; stroke-dasharray: none; stroke-linecap: butt; stroke-linejoin: miter; stroke-miterlimit: 10; fill: none; fill-rule: nonzero; opacity: 1;" transform="translate(1.4065934065934016 1.4065934065934016) scale(2.81 2.81)">
	<path d="M 22.015 5.086 c 0 -7.844 -16.613 -5.629 -16.613 0 c 0 29.627 -5.933 50.631 30.788 53.234 c -0.62 10.947 -1.936 26.419 2.438 29.279 c 5.127 3.106 10.12 3.296 14.952 0 c 3.171 -2.652 -1.388 -19.361 0 -30.181 c 25.279 -0.185 35.442 -20.49 29.904 -50.947 c 0 -5.767 -11.629 -3.878 -11.629 0 c 0 20.767 5.538 34.888 -24.366 34.888 C 15.37 41.358 21.326 23.796 22.015 5.086 z" style="stroke: none; stroke-width: 1; stroke-dasharray: none; stroke-linecap: butt; stroke-linejoin: miter; stroke-miterlimit: 10; fill: rgb(254,136,177); fill-rule: nonzero; opacity: 1;" transform=" matrix(1 0 0 1 0 0) " stroke-linecap="round"/>
	<path d="M 60.502 16.023 c 0.689 7.385 -6.19 15.044 -13.429 13.429 c -5.78 -1.29 -12.417 -6.81 -13.429 -13.429 C 32.523 8.692 39.657 2.699 47.073 2.594 C 53.842 2.498 59.801 8.503 60.502 16.023 z" style="stroke: none; stroke-width: 1; stroke-dasharray: none; stroke-linecap: butt; stroke-linejoin: miter; stroke-miterlimit: 10; fill: rgb(254,136,177); fill-rule: nonzero; opacity: 1;" transform=" matrix(1 0 0 1 0 0) " stroke-linecap="round"/>
</g>
</svg>