<?xml version="1.0" encoding="UTF-8"?>
<svg id="Layer_1" data-name="Layer 1" xmlns="http://www.w3.org/2000/svg" viewBox="0 0 632.84 550.99">
  <defs>
    <style>
      .cls-1 {
        fill: #ff78f5;
      }

      .cls-1, .cls-2, .cls-3, .cls-4, .cls-5, .cls-6, .cls-7, .cls-8, .cls-9 {
        stroke-width: 0px;
      }

      .cls-2 {
        fill: #78fffb;
      }

      .cls-3 {
        fill: #8fff78;
      }

      .cls-4 {
        fill: #6ddb5a;
      }

      .cls-5 {
        fill: #7898ff;
      }

      .cls-6 {
        fill: #ff78ff;
      }

      .cls-7 {
        fill: #fcc58d;
      }

      .cls-8 {
        fill: #fff278;
      }

      .cls-9 {
        fill: #ff7c77;
      }

      .cls-10 {
        fill: #3fa9f5;
        stroke: #3fa9f5;
        stroke-miterlimit: 10;
        stroke-width: 20px;
      }
    </style>
  </defs>
  <path class="cls-10" d="M10,268.61c1.14-8.31,2.2-16.62,3.42-24.92,4.82-32.83,15.44-64.11,31.81-93.96,11.4-20.78,25.64-39.93,42.33-57.6,6.28-6.65,15.25-10.51,25.77-9.34,1.65-4.75,2.89-9.31,4.8-13.64,3.93-8.9,12.96-13.75,21.09-19.07,7.22-4.73,15.11-8.68,22.75-12.9,4.82-2.67,9.62-1.82,12.29,2.03,3.84,5.53,2.57,11.51-3.13,14.69-8.28,4.62-16.45,9.4-24.86,13.85-17.38,9.2-18.48,20.6-4.98,33.78,10.16,9.92,19.94,20.14,29.75,30.33,5.38,5.59,2.71,14.15-5.02,16.33-1.01.28-2.76-.21-3.58-.89-4.86-4.03-9.87-7.97-14.21-12.4-9.5-9.69-18.52-19.74-27.95-29.5-4.81-4.98-15.97-5.04-20.34.15-9.39,11.16-18.98,22.27-27.23,34.07-12.9,18.47-22.55,38.36-29.77,59.11-10.21,29.33-15.25,59.33-14.87,90,.08,6.77,3.81,11.05,10.13,12.86,6.18,1.77,10.91.21,15.99-5.12,3.14-3.3,7.13-3.75,11.26-1.74,4.25,2.07,6.05,8.75,3.09,12.64-3.27,4.3-6.98,8.39-10.9,12.25-11.54,11.39-10.66,31.73,1.61,43.65,21.39,20.78,47.44,30.5,79.15,28.52,1.97-.12,4.45-1.24,5.65-2.6,10.17-11.52,20.96-22.65,34.28-31.32,15.37-10,32.34-17.01,51.94-18.96,39.76-3.94,79.59-.75,119.38-1.73,3.91-.1,8.17.69,11.72,2.12,5.16,2.08,5.57,6.28,4.27,10.82-1.33,4.64-4.93,5.9-9.82,5.9-35.51-.03-71.02-.12-106.54.07-7.74.04-15.73.18-23.14,1.86-17.47,3.96-33.57,10.57-46.52,22.17-3.94,3.53-8.39,6.63-12.62,9.92l.49,1.52c1.97.1,3.94.33,5.91.33,78.61.02,157.21.03,235.82-.02,4.97,0,10.01-.16,14.89-.88,22.14-3.24,37.46-15.15,48.15-31.51,14.06-21.52,16.62-44.59,8.25-68.37-5.76-16.38-15.82-30.04-32.43-39.8-12.07-7.1-24.96-10.59-39.47-10.44-23.94.24-47.88.05-71.82.07-5.39,0-9.8-.98-11.2-6.51-1.69-6.65,1.86-11.58,9.54-11.19,6.35.32,8.02-2.05,9.18-6.88,4.01-16.74,8.47-33.41,12.86-50.08,1.51-5.74,5.68-8.65,10.6-7.73,5.16.97,8.33,6.52,6.87,12.27-3.95,15.53-7.76,31.08-12.08,46.53-1.32,4.72.05,5.87,5.24,5.78,12.16-.23,24.35-.31,36.5.04,5.17.15,6.92-1.91,8.11-5.74,3.61-11.62,7.41-23.2,11.27-34.76,1.69-5.05,5.65-7.35,10.39-6.41,4.67.92,7.86,4.72,6.79,9.71-1.39,6.49-3.74,12.83-5.73,19.23-1.93,6.21-3.91,12.41-5.86,18.59,42.7,11.16,63.27,38.42,72.29,74.5,45.23,6.71,88.24-18.71,100.5-66.79-7.68,1.46-14.97,2.83-22.24,4.23-10.63,2.05-21.19,4.47-31.92,6-4.47.64-7.84-2.08-8.67-6.41-1.03-5.42.94-9.38,5.88-10.75,5.81-1.62,11.7-3.03,17.63-4.27,13.85-2.91,27.75-5.67,42.11-8.6.7-11.5-1.57-22.58-5.45-33.45-9.41-26.32-23.72-50.5-42.36-72.62-5.83-6.93-13.03-13-19.9-19.2-4.45-4.03-10.18-4.15-14.42-.1-9.21,8.77-18.02,17.87-27.01,26.81-4.06,4.03-7.92,8.25-12.34,11.95-5.09,4.28-12.37,2.3-13.51-3.89-.58-3.14.05-7.42,2.15-9.81,8.58-9.73,17.57-19.23,27.1-28.25,9.4-8.89,7.46-22.23-5.59-28.38-18.48-8.71-37.22-16.29-57.7-20.74-23.3-5.05-46.88-4.94-70.55-4.79-6.98.04-14.01.46-20.94-.1-11.2-.89-19.12,7.14-18.89,16.46.28,10.86.09,21.73.01,32.59-.02,2.26-.23,4.55-.66,6.78-.78,4.12-3.99,5.98-8.46,5.93-4.48-.05-7.79-2.04-8.22-6.16-.51-4.87-.52-9.79-.57-14.68-.09-8.06-.21-16.13,0-24.18.26-9.57-7.51-17.58-19.21-16.75-10.52.74-21.3-.38-31.65,1.06-15.53,2.16-30.83,5.71-46.14,8.95-4.18.89-9.84-1.6-11.53-5.98-2.06-5.34,1.52-10.9,7.64-12.67,18.62-5.36,37.69-8.24,57.27-8.77,7.72-.21,15.46-1.62,23.1-1.21,6.78.36,13.63,2.01,20.08,4.01,3.46,1.07,6.14,4.09,7.68,5.18,8.27-3.1,15.47-5.91,22.79-8.48,1.95-.68,4.23-.87,6.37-.88,15.96-.07,31.98-.81,47.86.17,17.21,1.06,34.56,2.7,51.34,6.06,13.88,2.79,27.27,7.95,40.39,13.02,8.93,3.44,17.47,7.99,25.38,13.02,8.12,5.17,12.21,13.03,13.69,21.31,4.96.87,9.46,1.71,13.98,2.43,12.56,2.01,19.1,10.92,26.14,18.6,9.26,10.09,18,20.73,25.35,31.96,18.53,28.28,34.23,57.63,34.73,91.25.42,28.38-8.99,54.16-29.09,76.41-9.32,10.31-21.12,18.31-34.79,24.46-14,6.29-28.63,7.73-43.79,7.92-3.76.05-7.52,0-10.92,0-.56,2.88-5.25,25-16.24,43.57-9.81,16.57-25.82,29.73-30,33-20.96,16.4-46.05,15.62-51,16-21.3-.29-39,0-59.85,1.25-3.15.19-6.08,1.86-7.17,4.83s-3.27,5.95-4.9,8.92c-2.27,4.15-5.75,6.25-11.04,4.67-4.03-1.21-6.67-6.74-5.42-11.17.61-2.16,1.59-4.24,2.57-6.81h-46.38c-1.95,12.79-5.77,24.99-13.28,36.1-1.81,2.68-3.22,5.8-5.74,7.84-6.12,4.96-6.62,11.71-8.4,18.03-3.01,10.68-6.13,21.37-8.21,32.2-.84,4.37-.1,9.49,1.81,13.59,2.01,4.31,6.51,7.34,12.8,6.79,6.93-.61,10.21-4.9,12.77-9.71,10.41-19.58,20.62-39.24,31.03-58.82,3.29-6.18,7.15-7.87,12.25-5.89,4.93,1.91,6.92,7.95,4.25,13.16-4.4,8.58-8.79,17.17-13.33,25.7-5.52,14.07-15.81,30.75-26.75,41.31-13,10-20.66,10.99-33,8-12.86-3.12-15-13-17-26-.01-9.99-.19-17.7,1.51-27.68.47-2.73,1.34-5.41,2.18-8.74-7.02,1.81-13.54,3.51-20.08,5.16-1.59.4-13.62,1.26-16.62,1.26-3.51,0-13.3.66-35-6-17.12-5.26-34.21-15.82-41.47-23.57-13.74-14.66-22.91-30.2-27.86-48.34-.78-2.85-5.57-5.36-9.12-7.03-15.3-7.18-27.89-17.07-37.27-29.69-9.37-12.61-10.83-26.78-7.31-41.38.53-2.2,1.33-4.36,2.1-6.84-14.32-4.64-21.5-14.44-25.07-26.81,0-8.41,0-16.82,0-25.24ZM106.55,410.4c2.92,5.4,5.61,11.13,9.01,16.53,11.3,17.98,28.47,30.51,50.88,35.15,13.4,2.77,18.48,2.31,32.56,2.43,2.12.02,13.96-1.82,15.89-2.64,13.23-5.56,24.41-13.22,31.67-24.7,5.1-8.07,8.82-16.54,9.69-26.15l-149.7-.63Z"/>
  <path class="cls-4" d="M424.35,292.32c5.53,5.24,10.61,9.8,15.35,14.63,4.08,4.15,3.3,11.3-1.16,14.08-4.41,2.75-8.83,1.09-13.58-3.46-9.21-8.82-19.68-16.33-34.25-16.52-22.13-.3-44.26-.21-66.39-.3-33.49-.15-67,.06-100.48-.62-18.95-.38-35.14-8.02-50.02-17.91-16.58-11.02-28.24-25.97-41.41-39.72-2.37-2.48-4.94-5.03-6.34-7.95-1.97-4.1-.79-8.13,3.9-10.43,4.41-2.16,8.61-1.04,11.81,2.22,7.58,7.74,15.03,15.58,22.48,23.41,10.06,10.56,21.27,19.58,35.74,25.7,12.32,5.21,25.01,6.32,38.13,6.34,48.06.07,96.11-.06,144.17.14,6.38.03,12.76,1.48,19.12,2.34,2.68.36,4.61.94,6.92-1.86,5.08-6.15,11.41-11.49,16.89-17.4,2.66-2.87,6.05-5.33,9.41-3.13,3.03,1.99,5.72,5.93,5.99,9.17.24,2.92-2.59,6.32-4.82,9.03-3.64,4.43-7.9,8.48-11.47,12.24Z"/>
  <path class="cls-9" d="M223.62,130.78c3.26,7.06,6.02,13.4,9.12,19.6,2.13,4.26.76,7.91-2.02,11.29-3.01,3.66-9.95,3.22-12.33-1.12-4.74-8.61-9.01-17.43-13.23-26.25-7.15-14.92-13.94-29.97-21.24-44.83-4.69-9.55-4-12.62,5.81-18.22,4.85,1.73,8.02,4.46,10.04,9.19,4.83,11.36,10.59,22.41,15.94,33.5,6.55-2.99,12.66-5.95,18.94-8.6,9.82-4.14,14.63-11.65,13.07-21.14-.8-4.84-1.86-9.65-2.7-14.49-.33-1.89-.75-3.87-.46-5.73.62-3.93,2.16-7.52,7.41-8.34,5.13-.79,8.3,1.9,9.29,5.64,4.72,17.84,9.22,35.92-5.34,52.08-3.52,3.91-8.93,6.7-13.92,9.34-5.67,3-11.85,5.25-18.36,8.06Z"/>
  <path class="cls-3" d="M422.12,103.59c4.84-10.62,9.55-20.94,14.24-31.27,1.1-2.43,1.46-5.45,3.36-7.18,2.35-2.13,6.03-4.48,8.99-4.33,2.55.13,6.86,3.56,6.93,5.62.15,4.65-1.17,9.57-3.09,13.98-8.9,20.34-18.2,40.54-27.39,60.78-1.92,4.22-6.51,6.34-11.03,5.2-4.62-1.16-7.62-5.36-6.3-9.99,1.2-4.2,3.07-8.29,5.05-12.28,1.49-3.01.44-4.52-2.73-5.64-5.82-2.07-11.95-3.72-17.32-6.5-18.35-9.49-25.65-23.77-22.19-42.32,1.03-5.51,1.64-11.18,3.69-16.4.91-2.3,4.67-4.61,7.6-5.22,4.05-.84,7.85,1.59,8.04,5.32.29,5.5-.29,11.09-1.17,16.57-1.39,8.65-1.35,16.79,6.91,23.11,1.02.78,2.11,1.58,3.33,2.04,7.4,2.79,14.85,5.49,23.08,8.5Z"/>
  <path class="cls-6" d="M260.45,240.92c-9.77,0-19.53.06-29.3-.02-7.82-.06-11.39-3.06-11.4-9.32,0-5.57,3.83-8.48,11.56-8.52,11.36-.06,22.72-.16,34.08.05,4.86.09,6.35-1.04,5.14-5.48-4.22-15.45-8.16-30.97-11.93-46.51-.58-2.4-.56-5.51.76-7.49,1.48-2.23,4.79-4.95,7.2-4.88,2.75.09,6.97,2.57,7.79,4.8,3.05,8.26,5.05,16.83,7.3,25.32,2.61,9.86,4.87,19.79,7.73,29.58.55,1.87,2.88,4.01,4.96,4.73,5.47,1.89,7.11,5.27,6.54,9.92-.6,4.86-3.65,7.7-9.35,7.75-10.36.09-20.73.03-31.09.03v.03Z"/>
  <path class="cls-9" d="M467.16,187.46c-.72-11.95,6.74-21.83,16.02-31,3.15-3.11,6.44-6.12,9.42-9.36,2.47-2.69,5.72-4.86,9.01-2.76,2.85,1.82,5.32,5.16,6.02,8.18.57,2.48-1.01,5.91-2.87,8.13-4.3,5.16-9.26,9.9-14.1,14.7-7.68,7.62-7.68,19.25.67,26.52,15.87,13.83,27.45,29.99,34.58,48.52,1.08,2.79.64,6.62-.72,9.36-.99,1.99-4.57,3.98-7.11,4.1-2.22.11-5.53-1.94-6.73-3.83-3.74-5.92-5.98-12.63-10.14-18.27-6.5-8.8-13.62-17.34-21.36-25.33-7.94-8.19-12.83-17.05-12.69-28.96Z"/>
  <path class="cls-1" d="M522.88,182.52c-1.8-4.75-3.34-9.19-5.17-13.55-5.52-13.12-3.77-24.97,7.62-35.27,2.47-2.23,4.47-4.88,7.06-6.98,5.33-4.3,12.12-2.73,13.59,3.63.74,3.2-.54,7.19-2.21,10.27-1.64,3.02-4.75,5.52-7.58,7.91-3.64,3.07-4.32,6.77-2.99,10.6,2.19,6.31,4.94,12.46,7.68,19.25,8.58-1.49,17.3-2.99,26.01-4.51,6.89-1.2,11.51.87,12.58,5.67,1.46,6.49-1.25,10.28-8.22,11.75-18.61,3.93-37.18,8-55.81,11.83-7.08,1.46-10.83-.74-12.35-6.57-1.31-5,2.26-10.33,8.05-11.72,3.62-.87,7.33-1.46,11.75-2.32Z"/>
  <path class="cls-2" d="M93.57,179.5c7.23.05,11.94,6.86,9.54,12.69-1.73,4.21-4.32,8.18-6.85,12.1-12.57,19.46-9.73,45.11,9.84,62.73,4.25,3.83,7.94,8.16,11.64,12.41,3.76,4.32,2.94,10.91-1.42,13.69-4.52,2.88-8.75,1.71-13.41-3.43-6.37-7.04-13.6-13.56-19.21-21.03-14.81-19.7-16.65-41.21-8.1-63.15,3.21-8.24,9.11-15.69,14.06-23.36.91-1.41,3.16-2.15,3.9-2.63Z"/>
  <path class="cls-8" d="M195.54,312.59c-.01,5.17-3.08,7.98-9.08,8.38-8.47.57-16.94,1.06-25.39,1.75-16.47,1.35-29.04,8.89-39.65,19.5-3.91,3.91-7.71,7.94-12.04,11.46-5.05,4.11-11.77,2.52-13.27-3.47-.8-3.2-.24-7.75,1.89-10.26,11.84-13.96,25.77-26.23,44.59-32.69,7.43-2.55,15.87-3.07,23.93-3.86,6.3-.61,12.73-.4,19.09-.21,6.97.21,9.96,3.22,9.95,9.39Z"/>
  <path class="cls-5" d="M307.54,142.26c0-7.54-.05-15.07.03-22.61.02-2.27-.47-5.08.83-6.66,1.85-2.27,4.89-4.52,7.87-5.16,4.01-.87,7.39,1.36,8.44,5.08.66,2.35.75,4.86.76,7.3.06,14.72.03,29.44.03,44.16,0,1.23.05,2.46-.07,3.68-.59,5.81-4.13,9.28-9.24,9.13-4.7-.13-8.37-3.73-8.53-9.16-.25-8.58-.07-17.17-.07-25.76-.02,0-.04,0-.06,0Z"/>
  <path class="cls-7" d="M211.82,219.4c-3.17,3.38-4.99,7.14-7.76,7.79-3.11.73-8.25-.35-10.46-2.37-7.74-7.08-14.6-14.91-21.79-22.45-3.15-3.31-6.27-6.64-9.47-9.91-4.55-4.65-4.72-11.28-.29-14.54,4.71-3.46,9.96-1.89,14.97,3.59,7.52,8.22,15.65,16.02,23.29,24.16,3.89,4.14,7.28,8.65,11.51,13.73Z"/>
</svg>